solid OpenSCAD_Model
  facet normal -0.735518 0.424651 0.527906
    outer loop
      vertex 1.8859 -1.28345 1.5
      vertex 2.08973 -0.93041 1.5
      vertex 1.23329 -0.549094 0
    endloop
  endfacet
  facet normal -0.84465 -0.0887761 0.527906
    outer loop
      vertex 2.2875 0 1.5
      vertex 2.24489 0.405428 1.5
      vertex 1.35 0 0
    endloop
  endfacet
  facet normal -0.84465 -0.088777 0.527906
    outer loop
      vertex 1.3205 0.280681 0
      vertex 2.24489 0.405428 1.5
      vertex 2.23751 0.475598 1.5
    endloop
  endfacet
  facet normal -0.84465 -0.088777 0.527906
    outer loop
      vertex 2.24489 0.405428 1.5
      vertex 1.3205 0.280681 0
      vertex 1.35 0 0
    endloop
  endfacet
  facet normal -0.84465 0.088777 0.527906
    outer loop
      vertex 1.3205 -0.280681 0
      vertex 2.24489 -0.405428 1.5
      vertex 1.35 0 0
    endloop
  endfacet
  facet normal -0.84465 0.088777 0.527906
    outer loop
      vertex 2.24489 -0.405428 1.5
      vertex 1.3205 -0.280681 0
      vertex 2.23751 -0.475598 1.5
    endloop
  endfacet
  facet normal 0.84465 0.088777 0.527906
    outer loop
      vertex -2.24489 -0.405428 1.5
      vertex -1.3205 -0.280681 0
      vertex -1.35 0 0
    endloop
  endfacet
  facet normal 0.84465 0.088777 0.527906
    outer loop
      vertex -1.3205 -0.280681 0
      vertex -2.24489 -0.405428 1.5
      vertex -2.23751 -0.475598 1.5
    endloop
  endfacet
  facet normal 0.84465 -0.088777 0.527906
    outer loop
      vertex -2.24489 0.405428 1.5
      vertex -1.3205 0.280681 0
      vertex -2.23751 0.475598 1.5
    endloop
  endfacet
  facet normal 0.84465 -0.088777 0.527906
    outer loop
      vertex -1.3205 0.280681 0
      vertex -2.24489 0.405428 1.5
      vertex -1.35 0 0
    endloop
  endfacet
  facet normal -0.84465 0.0887761 0.527906
    outer loop
      vertex 2.24489 -0.405428 1.5
      vertex 2.2875 0 1.5
      vertex 1.35 0 0
    endloop
  endfacet
  facet normal 0.345442 -0.775877 0.527906
    outer loop
      vertex -0.674999 1.16913 0
      vertex -0.706876 2.17554 1.5
      vertex -0.771333 2.14684 1.5
    endloop
  endfacet
  facet normal 0.345442 -0.775877 0.527906
    outer loop
      vertex -0.706876 2.17554 1.5
      vertex -0.674999 1.16913 0
      vertex -0.417172 1.28393 0
    endloop
  endfacet
  facet normal -0.631155 0.568294 0.527906
    outer loop
      vertex 0.903326 -1.00325 0
      vertex 1.85063 -1.34456 1.5
      vertex 1.09217 -0.793509 0
    endloop
  endfacet
  facet normal -0.631155 0.568294 0.527906
    outer loop
      vertex 1.85063 -1.34456 1.5
      vertex 0.903326 -1.00325 0
      vertex 1.80341 -1.39699 1.5
    endloop
  endfacet
  facet normal -0.499207 0.687101 0.527906
    outer loop
      vertex 0.903326 -1.00325 0
      vertex 1.14375 -1.98103 1.5
      vertex 1.20083 -1.93956 1.5
    endloop
  endfacet
  facet normal -0.499207 0.687101 0.527906
    outer loop
      vertex 1.14375 -1.98103 1.5
      vertex 0.903326 -1.00325 0
      vertex 0.674999 -1.16913 0
    endloop
  endfacet
  facet normal -0.176579 0.830744 0.527906
    outer loop
      vertex 0.706876 -2.17554 1.5
      vertex 0.417172 -1.28393 0
      vertex 0.308123 -2.2603 1.5
    endloop
  endfacet
  facet normal 0.176578 0.830744 0.527906
    outer loop
      vertex -0.141113 -1.3426 0
      vertex -0.308123 -2.2603 1.5
      vertex -0.239108 -2.27497 1.5
    endloop
  endfacet
  facet normal 0.176578 0.830744 0.527906
    outer loop
      vertex -0.308123 -2.2603 1.5
      vertex -0.141113 -1.3426 0
      vertex -0.417172 -1.28393 0
    endloop
  endfacet
  facet normal 0.807735 0.262449 0.527906
    outer loop
      vertex -2.08973 -0.93041 1.5
      vertex -1.23329 -0.549094 0
      vertex -2.21571 -0.542701 1.5
    endloop
  endfacet
  facet normal 0.499207 0.687101 0.527906
    outer loop
      vertex -1.20083 -1.93956 1.5
      vertex -0.903326 -1.00325 0
      vertex -1.53064 -1.69994 1.5
    endloop
  endfacet
  facet normal 0 -0.849303 0.527906
    outer loop
      vertex -0.141113 1.3426 0
      vertex 0.239108 2.27497 1.5
      vertex -0.239108 2.27497 1.5
    endloop
  endfacet
  facet normal 0 -0.849303 0.527906
    outer loop
      vertex 0.239108 2.27497 1.5
      vertex -0.141113 1.3426 0
      vertex 0.141113 1.3426 0
    endloop
  endfacet
  facet normal 0.735518 -0.424651 0.527906
    outer loop
      vertex -1.23329 0.549094 0
      vertex -1.8859 1.28345 1.5
      vertex -2.08973 0.93041 1.5
    endloop
  endfacet
  facet normal -0.807735 0.262448 0.527906
    outer loop
      vertex 1.23329 -0.549094 0
      vertex 2.23751 -0.475598 1.5
      vertex 1.3205 -0.280681 0
    endloop
  endfacet
  facet normal -0.807735 0.262448 0.527906
    outer loop
      vertex 2.23751 -0.475598 1.5
      vertex 1.23329 -0.549094 0
      vertex 2.21571 -0.542701 1.5
    endloop
  endfacet
  facet normal -0.807735 0.262449 0.527906
    outer loop
      vertex 2.08973 -0.93041 1.5
      vertex 2.21571 -0.542701 1.5
      vertex 1.23329 -0.549094 0
    endloop
  endfacet
  facet normal -0.735518 0.424651 0.527906
    outer loop
      vertex 1.09217 -0.793509 0
      vertex 1.8859 -1.28345 1.5
      vertex 1.23329 -0.549094 0
    endloop
  endfacet
  facet normal -0.735518 0.424651 0.527906
    outer loop
      vertex 1.8859 -1.28345 1.5
      vertex 1.09217 -0.793509 0
      vertex 1.85063 -1.34456 1.5
    endloop
  endfacet
  facet normal -0.499207 0.687101 0.527906
    outer loop
      vertex 1.20083 -1.93956 1.5
      vertex 1.53064 -1.69994 1.5
      vertex 0.903326 -1.00325 0
    endloop
  endfacet
  facet normal -0.631155 0.568295 0.527906
    outer loop
      vertex 1.53064 -1.69994 1.5
      vertex 1.80341 -1.39699 1.5
      vertex 0.903326 -1.00325 0
    endloop
  endfacet
  facet normal -0.176578 0.830744 0.527906
    outer loop
      vertex 0.417172 -1.28393 0
      vertex 0.239108 -2.27497 1.5
      vertex 0.308123 -2.2603 1.5
    endloop
  endfacet
  facet normal -0.176578 0.830744 0.527906
    outer loop
      vertex 0.239108 -2.27497 1.5
      vertex 0.417172 -1.28393 0
      vertex 0.141113 -1.3426 0
    endloop
  endfacet
  facet normal -0.345442 0.775877 0.527906
    outer loop
      vertex 0.674999 -1.16913 0
      vertex 0.706876 -2.17554 1.5
      vertex 0.771333 -2.14684 1.5
    endloop
  endfacet
  facet normal -0.345442 0.775877 0.527906
    outer loop
      vertex 0.706876 -2.17554 1.5
      vertex 0.674999 -1.16913 0
      vertex 0.417172 -1.28393 0
    endloop
  endfacet
  facet normal -0.345444 0.775876 0.527906
    outer loop
      vertex 0.771333 -2.14684 1.5
      vertex 1.14375 -1.98103 1.5
      vertex 0.674999 -1.16913 0
    endloop
  endfacet
  facet normal 0.807735 0.262448 0.527906
    outer loop
      vertex -1.23329 -0.549094 0
      vertex -2.23751 -0.475598 1.5
      vertex -2.21571 -0.542701 1.5
    endloop
  endfacet
  facet normal 0.807735 0.262448 0.527906
    outer loop
      vertex -2.23751 -0.475598 1.5
      vertex -1.23329 -0.549094 0
      vertex -1.3205 -0.280681 0
    endloop
  endfacet
  facet normal 0.631155 0.568295 0.527906
    outer loop
      vertex -1.53064 -1.69994 1.5
      vertex -0.903326 -1.00325 0
      vertex -1.80341 -1.39699 1.5
    endloop
  endfacet
  facet normal 0.176579 0.830744 0.527906
    outer loop
      vertex -0.308123 -2.2603 1.5
      vertex -0.417172 -1.28393 0
      vertex -0.706876 -2.17554 1.5
    endloop
  endfacet
  facet normal 0 0.849303 0.527906
    outer loop
      vertex 0.141113 -1.3426 0
      vertex -0.239108 -2.27497 1.5
      vertex 0.239108 -2.27497 1.5
    endloop
  endfacet
  facet normal 0 0.849303 0.527906
    outer loop
      vertex -0.239108 -2.27497 1.5
      vertex 0.141113 -1.3426 0
      vertex -0.141113 -1.3426 0
    endloop
  endfacet
  facet normal 0.631155 -0.568295 0.527906
    outer loop
      vertex -0.903326 1.00325 0
      vertex -1.53064 1.69994 1.5
      vertex -1.80341 1.39699 1.5
    endloop
  endfacet
  facet normal 0.631155 -0.568294 0.527906
    outer loop
      vertex -1.85063 1.34456 1.5
      vertex -0.903326 1.00325 0
      vertex -1.80341 1.39699 1.5
    endloop
  endfacet
  facet normal 0.631155 -0.568294 0.527906
    outer loop
      vertex -0.903326 1.00325 0
      vertex -1.85063 1.34456 1.5
      vertex -1.09217 0.793509 0
    endloop
  endfacet
  facet normal 0.84465 -0.0887761 0.527906
    outer loop
      vertex -1.35 0 0
      vertex -2.24489 0.405428 1.5
      vertex -2.2875 0 1.5
    endloop
  endfacet
  facet normal 0.84465 0.0887761 0.527906
    outer loop
      vertex -2.24489 -0.405428 1.5
      vertex -1.35 0 0
      vertex -2.2875 0 1.5
    endloop
  endfacet
  facet normal 0.345444 0.775876 0.527906
    outer loop
      vertex -0.771333 -2.14684 1.5
      vertex -0.674999 -1.16913 0
      vertex -1.14375 -1.98103 1.5
    endloop
  endfacet
  facet normal 0.499207 0.687101 0.527906
    outer loop
      vertex -0.903326 -1.00325 0
      vertex -1.14375 -1.98103 1.5
      vertex -0.674999 -1.16913 0
    endloop
  endfacet
  facet normal 0.499207 0.687101 0.527906
    outer loop
      vertex -1.14375 -1.98103 1.5
      vertex -0.903326 -1.00325 0
      vertex -1.20083 -1.93956 1.5
    endloop
  endfacet
  facet normal 0.735518 0.424651 0.527906
    outer loop
      vertex -1.8859 -1.28345 1.5
      vertex -1.23329 -0.549094 0
      vertex -2.08973 -0.93041 1.5
    endloop
  endfacet
  facet normal 0.631155 0.568294 0.527906
    outer loop
      vertex -1.85063 -1.34456 1.5
      vertex -0.903326 -1.00325 0
      vertex -1.09217 -0.793509 0
    endloop
  endfacet
  facet normal 0.631155 0.568294 0.527906
    outer loop
      vertex -0.903326 -1.00325 0
      vertex -1.85063 -1.34456 1.5
      vertex -1.80341 -1.39699 1.5
    endloop
  endfacet
  facet normal 0.735518 0.424651 0.527906
    outer loop
      vertex -1.8859 -1.28345 1.5
      vertex -1.09217 -0.793509 0
      vertex -1.23329 -0.549094 0
    endloop
  endfacet
  facet normal 0.735518 0.424651 0.527906
    outer loop
      vertex -1.09217 -0.793509 0
      vertex -1.8859 -1.28345 1.5
      vertex -1.85063 -1.34456 1.5
    endloop
  endfacet
  facet normal -0.631155 -0.568294 0.527906
    outer loop
      vertex 0.903326 1.00325 0
      vertex 1.85063 1.34456 1.5
      vertex 1.80341 1.39699 1.5
    endloop
  endfacet
  facet normal -0.631155 -0.568294 0.527906
    outer loop
      vertex 1.85063 1.34456 1.5
      vertex 0.903326 1.00325 0
      vertex 1.09217 0.793509 0
    endloop
  endfacet
  facet normal -0.499207 -0.687101 0.527906
    outer loop
      vertex 0.903326 1.00325 0
      vertex 1.14375 1.98103 1.5
      vertex 0.674999 1.16913 0
    endloop
  endfacet
  facet normal -0.499207 -0.687101 0.527906
    outer loop
      vertex 1.14375 1.98103 1.5
      vertex 0.903326 1.00325 0
      vertex 1.20083 1.93956 1.5
    endloop
  endfacet
  facet normal 0.176578 -0.830744 0.527906
    outer loop
      vertex -0.417172 1.28393 0
      vertex -0.239108 2.27497 1.5
      vertex -0.308123 2.2603 1.5
    endloop
  endfacet
  facet normal 0.176578 -0.830744 0.527906
    outer loop
      vertex -0.239108 2.27497 1.5
      vertex -0.417172 1.28393 0
      vertex -0.141113 1.3426 0
    endloop
  endfacet
  facet normal 0.176579 -0.830744 0.527906
    outer loop
      vertex -0.417172 1.28393 0
      vertex -0.308123 2.2603 1.5
      vertex -0.706876 2.17554 1.5
    endloop
  endfacet
  facet normal 0.499207 -0.687101 0.527906
    outer loop
      vertex -0.903326 1.00325 0
      vertex -1.20083 1.93956 1.5
      vertex -1.53064 1.69994 1.5
    endloop
  endfacet
  facet normal 0.807735 -0.262448 0.527906
    outer loop
      vertex -2.23751 0.475598 1.5
      vertex -1.23329 0.549094 0
      vertex -2.21571 0.542701 1.5
    endloop
  endfacet
  facet normal 0.807735 -0.262448 0.527906
    outer loop
      vertex -1.23329 0.549094 0
      vertex -2.23751 0.475598 1.5
      vertex -1.3205 0.280681 0
    endloop
  endfacet
  facet normal 0.807735 -0.262449 0.527906
    outer loop
      vertex -1.23329 0.549094 0
      vertex -2.08973 0.93041 1.5
      vertex -2.21571 0.542701 1.5
    endloop
  endfacet
  facet normal 0.735518 -0.424651 0.527906
    outer loop
      vertex -1.8859 1.28345 1.5
      vertex -1.09217 0.793509 0
      vertex -1.85063 1.34456 1.5
    endloop
  endfacet
  facet normal 0.735518 -0.424651 0.527906
    outer loop
      vertex -1.09217 0.793509 0
      vertex -1.8859 1.28345 1.5
      vertex -1.23329 0.549094 0
    endloop
  endfacet
  facet normal 0.345442 0.775877 0.527906
    outer loop
      vertex -0.674999 -1.16913 0
      vertex -0.706876 -2.17554 1.5
      vertex -0.417172 -1.28393 0
    endloop
  endfacet
  facet normal 0.345442 0.775877 0.527906
    outer loop
      vertex -0.706876 -2.17554 1.5
      vertex -0.674999 -1.16913 0
      vertex -0.771333 -2.14684 1.5
    endloop
  endfacet
  facet normal -0.807735 -0.262449 0.527906
    outer loop
      vertex 2.21571 0.542701 1.5
      vertex 2.08973 0.93041 1.5
      vertex 1.23329 0.549094 0
    endloop
  endfacet
  facet normal -0.807735 -0.262448 0.527906
    outer loop
      vertex 1.23329 0.549094 0
      vertex 2.23751 0.475598 1.5
      vertex 2.21571 0.542701 1.5
    endloop
  endfacet
  facet normal -0.807735 -0.262448 0.527906
    outer loop
      vertex 2.23751 0.475598 1.5
      vertex 1.23329 0.549094 0
      vertex 1.3205 0.280681 0
    endloop
  endfacet
  facet normal -0.631155 -0.568295 0.527906
    outer loop
      vertex 1.80341 1.39699 1.5
      vertex 1.53064 1.69994 1.5
      vertex 0.903326 1.00325 0
    endloop
  endfacet
  facet normal -0.499207 -0.687101 0.527906
    outer loop
      vertex 1.53064 1.69994 1.5
      vertex 1.20083 1.93956 1.5
      vertex 0.903326 1.00325 0
    endloop
  endfacet
  facet normal -0.176578 -0.830744 0.527906
    outer loop
      vertex 0.141113 1.3426 0
      vertex 0.308123 2.2603 1.5
      vertex 0.239108 2.27497 1.5
    endloop
  endfacet
  facet normal -0.176578 -0.830744 0.527906
    outer loop
      vertex 0.308123 2.2603 1.5
      vertex 0.141113 1.3426 0
      vertex 0.417172 1.28393 0
    endloop
  endfacet
  facet normal -0.176579 -0.830744 0.527906
    outer loop
      vertex 0.417172 1.28393 0
      vertex 0.706876 2.17554 1.5
      vertex 0.308123 2.2603 1.5
    endloop
  endfacet
  facet normal -0.345442 -0.775877 0.527906
    outer loop
      vertex 0.674999 1.16913 0
      vertex 0.706876 2.17554 1.5
      vertex 0.417172 1.28393 0
    endloop
  endfacet
  facet normal -0.345442 -0.775877 0.527906
    outer loop
      vertex 0.706876 2.17554 1.5
      vertex 0.674999 1.16913 0
      vertex 0.771333 2.14684 1.5
    endloop
  endfacet
  facet normal -0.345444 -0.775876 0.527906
    outer loop
      vertex 1.14375 1.98103 1.5
      vertex 0.771333 2.14684 1.5
      vertex 0.674999 1.16913 0
    endloop
  endfacet
  facet normal 0.499207 -0.687101 0.527906
    outer loop
      vertex -0.903326 1.00325 0
      vertex -1.14375 1.98103 1.5
      vertex -1.20083 1.93956 1.5
    endloop
  endfacet
  facet normal 0.499207 -0.687101 0.527906
    outer loop
      vertex -1.14375 1.98103 1.5
      vertex -0.903326 1.00325 0
      vertex -0.674999 1.16913 0
    endloop
  endfacet
  facet normal 0.345444 -0.775876 0.527906
    outer loop
      vertex -0.674999 1.16913 0
      vertex -0.771333 2.14684 1.5
      vertex -1.14375 1.98103 1.5
    endloop
  endfacet
  facet normal -0.735518 -0.424651 0.527906
    outer loop
      vertex 1.09217 0.793509 0
      vertex 1.8859 1.28345 1.5
      vertex 1.85063 1.34456 1.5
    endloop
  endfacet
  facet normal -0.735518 -0.424651 0.527906
    outer loop
      vertex 1.8859 1.28345 1.5
      vertex 1.09217 0.793509 0
      vertex 1.23329 0.549094 0
    endloop
  endfacet
  facet normal -0.735518 -0.424651 0.527906
    outer loop
      vertex 2.08973 0.93041 1.5
      vertex 1.8859 1.28345 1.5
      vertex 1.23329 0.549094 0
    endloop
  endfacet
  facet normal -0.994522 -0.104529 0
    outer loop
      vertex 1.35 0 -1.5
      vertex 1.3205 0.280681 0
      vertex 1.3205 0.280681 -1.5
    endloop
  endfacet
  facet normal -0.994522 -0.104529 0
    outer loop
      vertex 1.3205 0.280681 0
      vertex 1.35 0 -1.5
      vertex 1.35 0 0
    endloop
  endfacet
  facet normal 0.994522 -0.104529 0
    outer loop
      vertex -1.35 0 0
      vertex -1.3205 0.280681 -1.5
      vertex -1.3205 0.280681 0
    endloop
  endfacet
  facet normal 0.994522 -0.104529 0
    outer loop
      vertex -1.3205 0.280681 -1.5
      vertex -1.35 0 0
      vertex -1.35 0 -1.5
    endloop
  endfacet
  facet normal 0 -1 0
    outer loop
      vertex -0.141113 1.3426 -1.5
      vertex 0.141113 1.3426 0
      vertex -0.141113 1.3426 0
    endloop
  endfacet
  facet normal 0 -1 -0
    outer loop
      vertex 0.141113 1.3426 0
      vertex -0.141113 1.3426 -1.5
      vertex 0.141113 1.3426 -1.5
    endloop
  endfacet
  facet normal 0 1 -0
    outer loop
      vertex 0.141113 -1.3426 -1.5
      vertex -0.141113 -1.3426 0
      vertex 0.141113 -1.3426 0
    endloop
  endfacet
  facet normal 0 1 0
    outer loop
      vertex -0.141113 -1.3426 0
      vertex 0.141113 -1.3426 -1.5
      vertex -0.141113 -1.3426 -1.5
    endloop
  endfacet
  facet normal -0.743146 -0.66913 0
    outer loop
      vertex 1.09217 0.793509 -1.5
      vertex 0.903326 1.00325 0
      vertex 0.903326 1.00325 -1.5
    endloop
  endfacet
  facet normal -0.743146 -0.66913 0
    outer loop
      vertex 0.903326 1.00325 0
      vertex 1.09217 0.793509 -1.5
      vertex 1.09217 0.793509 0
    endloop
  endfacet
  facet normal -0.951057 -0.309016 0
    outer loop
      vertex 1.3205 0.280681 -1.5
      vertex 1.23329 0.549094 0
      vertex 1.23329 0.549094 -1.5
    endloop
  endfacet
  facet normal -0.951057 -0.309016 0
    outer loop
      vertex 1.23329 0.549094 0
      vertex 1.3205 0.280681 -1.5
      vertex 1.3205 0.280681 0
    endloop
  endfacet
  facet normal 0.587784 -0.809018 0
    outer loop
      vertex -0.903326 1.00325 -1.5
      vertex -0.674999 1.16913 0
      vertex -0.903326 1.00325 0
    endloop
  endfacet
  facet normal 0.587784 -0.809018 0
    outer loop
      vertex -0.674999 1.16913 0
      vertex -0.903326 1.00325 -1.5
      vertex -0.674999 1.16913 -1.5
    endloop
  endfacet
  facet normal 0.20791 -0.978148 0
    outer loop
      vertex -0.417172 1.28393 -1.5
      vertex -0.141113 1.3426 0
      vertex -0.417172 1.28393 0
    endloop
  endfacet
  facet normal 0.20791 -0.978148 0
    outer loop
      vertex -0.141113 1.3426 0
      vertex -0.417172 1.28393 -1.5
      vertex -0.141113 1.3426 -1.5
    endloop
  endfacet
  facet normal -0.866025 -0.5 0
    outer loop
      vertex 1.23329 0.549094 -1.5
      vertex 1.09217 0.793509 0
      vertex 1.09217 0.793509 -1.5
    endloop
  endfacet
  facet normal -0.866025 -0.5 0
    outer loop
      vertex 1.09217 0.793509 0
      vertex 1.23329 0.549094 -1.5
      vertex 1.23329 0.549094 0
    endloop
  endfacet
  facet normal -0.406737 -0.913545 0
    outer loop
      vertex 0.417172 1.28393 -1.5
      vertex 0.674999 1.16913 0
      vertex 0.417172 1.28393 0
    endloop
  endfacet
  facet normal -0.406737 -0.913545 -0
    outer loop
      vertex 0.674999 1.16913 0
      vertex 0.417172 1.28393 -1.5
      vertex 0.674999 1.16913 -1.5
    endloop
  endfacet
  facet normal -0.20791 -0.978148 0
    outer loop
      vertex 0.141113 1.3426 -1.5
      vertex 0.417172 1.28393 0
      vertex 0.141113 1.3426 0
    endloop
  endfacet
  facet normal -0.20791 -0.978148 -0
    outer loop
      vertex 0.417172 1.28393 0
      vertex 0.141113 1.3426 -1.5
      vertex 0.417172 1.28393 -1.5
    endloop
  endfacet
  facet normal -0.587784 -0.809018 0
    outer loop
      vertex 0.674999 1.16913 -1.5
      vertex 0.903326 1.00325 0
      vertex 0.674999 1.16913 0
    endloop
  endfacet
  facet normal -0.587784 -0.809018 -0
    outer loop
      vertex 0.903326 1.00325 0
      vertex 0.674999 1.16913 -1.5
      vertex 0.903326 1.00325 -1.5
    endloop
  endfacet
  facet normal 0.866025 -0.5 0
    outer loop
      vertex -1.23329 0.549094 0
      vertex -1.09217 0.793509 -1.5
      vertex -1.09217 0.793509 0
    endloop
  endfacet
  facet normal 0.866025 -0.5 0
    outer loop
      vertex -1.09217 0.793509 -1.5
      vertex -1.23329 0.549094 0
      vertex -1.23329 0.549094 -1.5
    endloop
  endfacet
  facet normal 0.743146 -0.66913 0
    outer loop
      vertex -1.09217 0.793509 0
      vertex -0.903326 1.00325 -1.5
      vertex -0.903326 1.00325 0
    endloop
  endfacet
  facet normal 0.743146 -0.66913 0
    outer loop
      vertex -0.903326 1.00325 -1.5
      vertex -1.09217 0.793509 0
      vertex -1.09217 0.793509 -1.5
    endloop
  endfacet
  facet normal 0.951057 -0.309016 0
    outer loop
      vertex -1.3205 0.280681 0
      vertex -1.23329 0.549094 -1.5
      vertex -1.23329 0.549094 0
    endloop
  endfacet
  facet normal 0.951057 -0.309016 0
    outer loop
      vertex -1.23329 0.549094 -1.5
      vertex -1.3205 0.280681 0
      vertex -1.3205 0.280681 -1.5
    endloop
  endfacet
  facet normal 0.406737 -0.913545 0
    outer loop
      vertex -0.674999 1.16913 -1.5
      vertex -0.417172 1.28393 0
      vertex -0.674999 1.16913 0
    endloop
  endfacet
  facet normal 0.406737 -0.913545 0
    outer loop
      vertex -0.417172 1.28393 0
      vertex -0.674999 1.16913 -1.5
      vertex -0.417172 1.28393 -1.5
    endloop
  endfacet
  facet normal -0.994522 0.104529 0
    outer loop
      vertex 1.3205 -0.280681 -1.5
      vertex 1.35 0 0
      vertex 1.35 0 -1.5
    endloop
  endfacet
  facet normal -0.994522 0.104529 0
    outer loop
      vertex 1.35 0 0
      vertex 1.3205 -0.280681 -1.5
      vertex 1.3205 -0.280681 0
    endloop
  endfacet
  facet normal -0.20791 0.978148 0
    outer loop
      vertex 0.417172 -1.28393 -1.5
      vertex 0.141113 -1.3426 0
      vertex 0.417172 -1.28393 0
    endloop
  endfacet
  facet normal -0.20791 0.978148 0
    outer loop
      vertex 0.141113 -1.3426 0
      vertex 0.417172 -1.28393 -1.5
      vertex 0.141113 -1.3426 -1.5
    endloop
  endfacet
  facet normal -0.743146 0.66913 0
    outer loop
      vertex 0.903326 -1.00325 -1.5
      vertex 1.09217 -0.793509 0
      vertex 1.09217 -0.793509 -1.5
    endloop
  endfacet
  facet normal -0.743146 0.66913 0
    outer loop
      vertex 1.09217 -0.793509 0
      vertex 0.903326 -1.00325 -1.5
      vertex 0.903326 -1.00325 0
    endloop
  endfacet
  facet normal -0.951057 0.309016 0
    outer loop
      vertex 1.23329 -0.549094 -1.5
      vertex 1.3205 -0.280681 0
      vertex 1.3205 -0.280681 -1.5
    endloop
  endfacet
  facet normal -0.951057 0.309016 0
    outer loop
      vertex 1.3205 -0.280681 0
      vertex 1.23329 -0.549094 -1.5
      vertex 1.23329 -0.549094 0
    endloop
  endfacet
  facet normal -0.866025 0.5 0
    outer loop
      vertex 1.09217 -0.793509 -1.5
      vertex 1.23329 -0.549094 0
      vertex 1.23329 -0.549094 -1.5
    endloop
  endfacet
  facet normal -0.866025 0.5 0
    outer loop
      vertex 1.23329 -0.549094 0
      vertex 1.09217 -0.793509 -1.5
      vertex 1.09217 -0.793509 0
    endloop
  endfacet
  facet normal 0.406737 0.913545 -0
    outer loop
      vertex -0.417172 -1.28393 -1.5
      vertex -0.674999 -1.16913 0
      vertex -0.417172 -1.28393 0
    endloop
  endfacet
  facet normal 0.406737 0.913545 0
    outer loop
      vertex -0.674999 -1.16913 0
      vertex -0.417172 -1.28393 -1.5
      vertex -0.674999 -1.16913 -1.5
    endloop
  endfacet
  facet normal 0.866025 0.5 0
    outer loop
      vertex -1.09217 -0.793509 0
      vertex -1.23329 -0.549094 -1.5
      vertex -1.23329 -0.549094 0
    endloop
  endfacet
  facet normal 0.866025 0.5 0
    outer loop
      vertex -1.23329 -0.549094 -1.5
      vertex -1.09217 -0.793509 0
      vertex -1.09217 -0.793509 -1.5
    endloop
  endfacet
  facet normal -0.587784 0.809018 0
    outer loop
      vertex 0.903326 -1.00325 -1.5
      vertex 0.674999 -1.16913 0
      vertex 0.903326 -1.00325 0
    endloop
  endfacet
  facet normal -0.587784 0.809018 0
    outer loop
      vertex 0.674999 -1.16913 0
      vertex 0.903326 -1.00325 -1.5
      vertex 0.674999 -1.16913 -1.5
    endloop
  endfacet
  facet normal -0.406737 0.913545 0
    outer loop
      vertex 0.674999 -1.16913 -1.5
      vertex 0.417172 -1.28393 0
      vertex 0.674999 -1.16913 0
    endloop
  endfacet
  facet normal -0.406737 0.913545 0
    outer loop
      vertex 0.417172 -1.28393 0
      vertex 0.674999 -1.16913 -1.5
      vertex 0.417172 -1.28393 -1.5
    endloop
  endfacet
  facet normal 0.20791 0.978148 -0
    outer loop
      vertex -0.141113 -1.3426 -1.5
      vertex -0.417172 -1.28393 0
      vertex -0.141113 -1.3426 0
    endloop
  endfacet
  facet normal 0.20791 0.978148 0
    outer loop
      vertex -0.417172 -1.28393 0
      vertex -0.141113 -1.3426 -1.5
      vertex -0.417172 -1.28393 -1.5
    endloop
  endfacet
  facet normal 0.587784 0.809018 -0
    outer loop
      vertex -0.674999 -1.16913 -1.5
      vertex -0.903326 -1.00325 0
      vertex -0.674999 -1.16913 0
    endloop
  endfacet
  facet normal 0.587784 0.809018 0
    outer loop
      vertex -0.903326 -1.00325 0
      vertex -0.674999 -1.16913 -1.5
      vertex -0.903326 -1.00325 -1.5
    endloop
  endfacet
  facet normal 0.743146 0.66913 0
    outer loop
      vertex -0.903326 -1.00325 0
      vertex -1.09217 -0.793509 -1.5
      vertex -1.09217 -0.793509 0
    endloop
  endfacet
  facet normal 0.743146 0.66913 0
    outer loop
      vertex -1.09217 -0.793509 -1.5
      vertex -0.903326 -1.00325 0
      vertex -0.903326 -1.00325 -1.5
    endloop
  endfacet
  facet normal 0.951057 0.309016 0
    outer loop
      vertex -1.23329 -0.549094 0
      vertex -1.3205 -0.280681 -1.5
      vertex -1.3205 -0.280681 0
    endloop
  endfacet
  facet normal 0.951057 0.309016 0
    outer loop
      vertex -1.3205 -0.280681 -1.5
      vertex -1.23329 -0.549094 0
      vertex -1.23329 -0.549094 -1.5
    endloop
  endfacet
  facet normal 0.994522 0.104529 0
    outer loop
      vertex -1.3205 -0.280681 0
      vertex -1.35 0 -1.5
      vertex -1.35 0 0
    endloop
  endfacet
  facet normal 0.994522 0.104529 0
    outer loop
      vertex -1.35 0 -1.5
      vertex -1.3205 -0.280681 0
      vertex -1.3205 -0.280681 -1.5
    endloop
  endfacet
  facet normal 0.994522 0.104529 0
    outer loop
      vertex 3 0 1.5
      vertex 2.93444 0.623734 -1.5
      vertex 2.93444 0.623734 1.5
    endloop
  endfacet
  facet normal 0.994522 0.104529 0
    outer loop
      vertex 2.93444 0.623734 -1.5
      vertex 3 0 1.5
      vertex 3 0 -1.5
    endloop
  endfacet
  facet normal -0.994522 0.104529 0
    outer loop
      vertex -3 0 -1.5
      vertex -2.93444 0.623734 1.5
      vertex -2.93444 0.623734 -1.5
    endloop
  endfacet
  facet normal -0.994522 0.104529 0
    outer loop
      vertex -2.93444 0.623734 1.5
      vertex -3 0 -1.5
      vertex -3 0 1.5
    endloop
  endfacet
  facet normal 0 1 -0
    outer loop
      vertex 0.313585 2.98357 -1.5
      vertex -0.313585 2.98357 1.5
      vertex 0.313585 2.98357 1.5
    endloop
  endfacet
  facet normal 0 1 0
    outer loop
      vertex -0.313585 2.98357 1.5
      vertex 0.313585 2.98357 -1.5
      vertex -0.313585 2.98357 -1.5
    endloop
  endfacet
  facet normal 0 -1 0
    outer loop
      vertex -0.313585 -2.98357 -1.5
      vertex 0.313585 -2.98357 1.5
      vertex -0.313585 -2.98357 1.5
    endloop
  endfacet
  facet normal 0 -1 -0
    outer loop
      vertex 0.313585 -2.98357 1.5
      vertex -0.313585 -2.98357 -1.5
      vertex 0.313585 -2.98357 -1.5
    endloop
  endfacet
  facet normal 0.587786 0.809016 -0
    outer loop
      vertex 2.00739 2.22943 -1.5
      vertex 1.5 2.59808 1.5
      vertex 2.00739 2.22943 1.5
    endloop
  endfacet
  facet normal 0.587786 0.809016 0
    outer loop
      vertex 1.5 2.59808 1.5
      vertex 2.00739 2.22943 -1.5
      vertex 1.5 2.59808 -1.5
    endloop
  endfacet
  facet normal 0.406737 0.913545 -0
    outer loop
      vertex 1.5 2.59808 -1.5
      vertex 0.927051 2.85317 1.5
      vertex 1.5 2.59808 1.5
    endloop
  endfacet
  facet normal 0.406737 0.913545 0
    outer loop
      vertex 0.927051 2.85317 1.5
      vertex 1.5 2.59808 -1.5
      vertex 0.927051 2.85317 -1.5
    endloop
  endfacet
  facet normal -0.743144 0.669131 0
    outer loop
      vertex -2.42705 1.76336 -1.5
      vertex -2.00739 2.22943 1.5
      vertex -2.00739 2.22943 -1.5
    endloop
  endfacet
  facet normal -0.743144 0.669131 0
    outer loop
      vertex -2.00739 2.22943 1.5
      vertex -2.42705 1.76336 -1.5
      vertex -2.42705 1.76336 1.5
    endloop
  endfacet
  facet normal -0 0 1
    outer loop
      vertex 2.24489 0.405428 1.5
      vertex 3 0 1.5
      vertex 2.93444 0.623734 1.5
    endloop
  endfacet
  facet normal 0 0 1
    outer loop
      vertex 2.21571 0.542701 1.5
      vertex 2.93444 0.623734 1.5
      vertex 2.74064 1.22021 1.5
    endloop
  endfacet
  facet normal 0 0 1
    outer loop
      vertex 3 0 1.5
      vertex 2.24489 0.405428 1.5
      vertex 2.2875 0 1.5
    endloop
  endfacet
  facet normal -0 0 1
    outer loop
      vertex 1.8859 1.28345 1.5
      vertex 2.74064 1.22021 1.5
      vertex 2.42705 1.76336 1.5
    endloop
  endfacet
  facet normal 0 0 1
    outer loop
      vertex 2.24489 -0.405428 1.5
      vertex 3 0 1.5
      vertex 2.2875 0 1.5
    endloop
  endfacet
  facet normal -0 0 1
    outer loop
      vertex 2.23751 -0.475598 1.5
      vertex 2.93444 -0.623734 1.5
      vertex 2.24489 -0.405428 1.5
    endloop
  endfacet
  facet normal 0 0 1
    outer loop
      vertex 3 0 1.5
      vertex 2.24489 -0.405428 1.5
      vertex 2.93444 -0.623734 1.5
    endloop
  endfacet
  facet normal 0 0 1
    outer loop
      vertex 2.93444 0.623734 1.5
      vertex 2.23751 0.475598 1.5
      vertex 2.24489 0.405428 1.5
    endloop
  endfacet
  facet normal 0 0 1
    outer loop
      vertex 2.93444 0.623734 1.5
      vertex 2.21571 0.542701 1.5
      vertex 2.23751 0.475598 1.5
    endloop
  endfacet
  facet normal 0 0 1
    outer loop
      vertex 2.74064 1.22021 1.5
      vertex 2.08973 0.93041 1.5
      vertex 2.21571 0.542701 1.5
    endloop
  endfacet
  facet normal 0 0 1
    outer loop
      vertex 1.80341 1.39699 1.5
      vertex 2.42705 1.76336 1.5
      vertex 2.00739 2.22943 1.5
    endloop
  endfacet
  facet normal 0 0 1
    outer loop
      vertex 2.74064 1.22021 1.5
      vertex 1.8859 1.28345 1.5
      vertex 2.08973 0.93041 1.5
    endloop
  endfacet
  facet normal 0 0 1
    outer loop
      vertex 2.42705 1.76336 1.5
      vertex 1.85063 1.34456 1.5
      vertex 1.8859 1.28345 1.5
    endloop
  endfacet
  facet normal 0 0 1
    outer loop
      vertex 2.42705 1.76336 1.5
      vertex 1.80341 1.39699 1.5
      vertex 1.85063 1.34456 1.5
    endloop
  endfacet
  facet normal 0 0 1
    outer loop
      vertex 2.00739 2.22943 1.5
      vertex 1.53064 1.69994 1.5
      vertex 1.80341 1.39699 1.5
    endloop
  endfacet
  facet normal 0 0 1
    outer loop
      vertex 1.20083 1.93956 1.5
      vertex 2.00739 2.22943 1.5
      vertex 1.5 2.59808 1.5
    endloop
  endfacet
  facet normal 0 0 1
    outer loop
      vertex 2.00739 2.22943 1.5
      vertex 1.20083 1.93956 1.5
      vertex 1.53064 1.69994 1.5
    endloop
  endfacet
  facet normal 0 0 1
    outer loop
      vertex 1.5 2.59808 1.5
      vertex 1.14375 1.98103 1.5
      vertex 1.20083 1.93956 1.5
    endloop
  endfacet
  facet normal 0 0 1
    outer loop
      vertex 0.771333 2.14684 1.5
      vertex 1.5 2.59808 1.5
      vertex 0.927051 2.85317 1.5
    endloop
  endfacet
  facet normal 0 0 1
    outer loop
      vertex 1.5 2.59808 1.5
      vertex 0.771333 2.14684 1.5
      vertex 1.14375 1.98103 1.5
    endloop
  endfacet
  facet normal 0 0 1
    outer loop
      vertex 0.927051 2.85317 1.5
      vertex 0.706876 2.17554 1.5
      vertex 0.771333 2.14684 1.5
    endloop
  endfacet
  facet normal 0 0 1
    outer loop
      vertex 0.308123 2.2603 1.5
      vertex 0.927051 2.85317 1.5
      vertex 0.313585 2.98357 1.5
    endloop
  endfacet
  facet normal 0 0 1
    outer loop
      vertex 0.927051 2.85317 1.5
      vertex 0.308123 2.2603 1.5
      vertex 0.706876 2.17554 1.5
    endloop
  endfacet
  facet normal 0 0 1
    outer loop
      vertex 0.313585 2.98357 1.5
      vertex 0.239108 2.27497 1.5
      vertex 0.308123 2.2603 1.5
    endloop
  endfacet
  facet normal 0 0 1
    outer loop
      vertex 0.313585 2.98357 1.5
      vertex -0.239108 2.27497 1.5
      vertex 0.239108 2.27497 1.5
    endloop
  endfacet
  facet normal -0 0 1
    outer loop
      vertex -0.313585 2.98357 1.5
      vertex -0.239108 2.27497 1.5
      vertex 0.313585 2.98357 1.5
    endloop
  endfacet
  facet normal 0 0 1
    outer loop
      vertex -0.239108 2.27497 1.5
      vertex -0.313585 2.98357 1.5
      vertex -0.308123 2.2603 1.5
    endloop
  endfacet
  facet normal -0 0 1
    outer loop
      vertex -0.927051 2.85317 1.5
      vertex -0.308123 2.2603 1.5
      vertex -0.313585 2.98357 1.5
    endloop
  endfacet
  facet normal 0 0 1
    outer loop
      vertex -0.308123 2.2603 1.5
      vertex -0.927051 2.85317 1.5
      vertex -0.706876 2.17554 1.5
    endloop
  endfacet
  facet normal 0 0 1
    outer loop
      vertex -0.706876 2.17554 1.5
      vertex -0.927051 2.85317 1.5
      vertex -0.771333 2.14684 1.5
    endloop
  endfacet
  facet normal -0 0 1
    outer loop
      vertex -1.5 2.59808 1.5
      vertex -0.771333 2.14684 1.5
      vertex -0.927051 2.85317 1.5
    endloop
  endfacet
  facet normal 0 0 1
    outer loop
      vertex -0.771333 2.14684 1.5
      vertex -1.5 2.59808 1.5
      vertex -1.14375 1.98103 1.5
    endloop
  endfacet
  facet normal 0 0 1
    outer loop
      vertex -1.14375 1.98103 1.5
      vertex -1.5 2.59808 1.5
      vertex -1.20083 1.93956 1.5
    endloop
  endfacet
  facet normal -0 0 1
    outer loop
      vertex -2.00739 2.22943 1.5
      vertex -1.20083 1.93956 1.5
      vertex -1.5 2.59808 1.5
    endloop
  endfacet
  facet normal 0 0 1
    outer loop
      vertex -1.20083 1.93956 1.5
      vertex -2.00739 2.22943 1.5
      vertex -1.53064 1.69994 1.5
    endloop
  endfacet
  facet normal 0 0 1
    outer loop
      vertex -1.53064 1.69994 1.5
      vertex -2.00739 2.22943 1.5
      vertex -1.80341 1.39699 1.5
    endloop
  endfacet
  facet normal -0 0 1
    outer loop
      vertex -2.42705 1.76336 1.5
      vertex -1.80341 1.39699 1.5
      vertex -2.00739 2.22943 1.5
    endloop
  endfacet
  facet normal 0 0 1
    outer loop
      vertex -1.80341 1.39699 1.5
      vertex -2.42705 1.76336 1.5
      vertex -1.85063 1.34456 1.5
    endloop
  endfacet
  facet normal 0 0 1
    outer loop
      vertex -1.85063 1.34456 1.5
      vertex -2.42705 1.76336 1.5
      vertex -1.8859 1.28345 1.5
    endloop
  endfacet
  facet normal 0 0 1
    outer loop
      vertex -2.74064 1.22021 1.5
      vertex -1.8859 1.28345 1.5
      vertex -2.42705 1.76336 1.5
    endloop
  endfacet
  facet normal 0 0 1
    outer loop
      vertex -1.8859 1.28345 1.5
      vertex -2.74064 1.22021 1.5
      vertex -2.08973 0.93041 1.5
    endloop
  endfacet
  facet normal 0 0 1
    outer loop
      vertex -2.21571 0.542701 1.5
      vertex -2.93444 0.623734 1.5
      vertex -2.23751 0.475598 1.5
    endloop
  endfacet
  facet normal -0 0 1
    outer loop
      vertex -2.93444 0.623734 1.5
      vertex -2.21571 0.542701 1.5
      vertex -2.74064 1.22021 1.5
    endloop
  endfacet
  facet normal 0 0 1
    outer loop
      vertex -2.08973 0.93041 1.5
      vertex -2.74064 1.22021 1.5
      vertex -2.21571 0.542701 1.5
    endloop
  endfacet
  facet normal -0 0 1
    outer loop
      vertex 2.21571 -0.542701 1.5
      vertex 2.93444 -0.623734 1.5
      vertex 2.23751 -0.475598 1.5
    endloop
  endfacet
  facet normal 0 0 1
    outer loop
      vertex 2.93444 -0.623734 1.5
      vertex 2.21571 -0.542701 1.5
      vertex 2.74064 -1.22021 1.5
    endloop
  endfacet
  facet normal -0 0 1
    outer loop
      vertex 2.08973 -0.93041 1.5
      vertex 2.74064 -1.22021 1.5
      vertex 2.21571 -0.542701 1.5
    endloop
  endfacet
  facet normal 0 0 1
    outer loop
      vertex 1.8859 -1.28345 1.5
      vertex 2.74064 -1.22021 1.5
      vertex 2.08973 -0.93041 1.5
    endloop
  endfacet
  facet normal 0 0 1
    outer loop
      vertex 2.74064 -1.22021 1.5
      vertex 1.8859 -1.28345 1.5
      vertex 2.42705 -1.76336 1.5
    endloop
  endfacet
  facet normal -0 0 1
    outer loop
      vertex 1.85063 -1.34456 1.5
      vertex 2.42705 -1.76336 1.5
      vertex 1.8859 -1.28345 1.5
    endloop
  endfacet
  facet normal -0 0 1
    outer loop
      vertex 1.80341 -1.39699 1.5
      vertex 2.42705 -1.76336 1.5
      vertex 1.85063 -1.34456 1.5
    endloop
  endfacet
  facet normal 0 0 1
    outer loop
      vertex 2.42705 -1.76336 1.5
      vertex 1.80341 -1.39699 1.5
      vertex 2.00739 -2.22943 1.5
    endloop
  endfacet
  facet normal -0 0 1
    outer loop
      vertex 1.53064 -1.69994 1.5
      vertex 2.00739 -2.22943 1.5
      vertex 1.80341 -1.39699 1.5
    endloop
  endfacet
  facet normal -0 0 1
    outer loop
      vertex 1.20083 -1.93956 1.5
      vertex 2.00739 -2.22943 1.5
      vertex 1.53064 -1.69994 1.5
    endloop
  endfacet
  facet normal 0 0 1
    outer loop
      vertex 2.00739 -2.22943 1.5
      vertex 1.20083 -1.93956 1.5
      vertex 1.5 -2.59808 1.5
    endloop
  endfacet
  facet normal -0 0 1
    outer loop
      vertex 1.14375 -1.98103 1.5
      vertex 1.5 -2.59808 1.5
      vertex 1.20083 -1.93956 1.5
    endloop
  endfacet
  facet normal -0 0 1
    outer loop
      vertex 0.771333 -2.14684 1.5
      vertex 1.5 -2.59808 1.5
      vertex 1.14375 -1.98103 1.5
    endloop
  endfacet
  facet normal 0 0 1
    outer loop
      vertex 1.5 -2.59808 1.5
      vertex 0.771333 -2.14684 1.5
      vertex 0.927051 -2.85317 1.5
    endloop
  endfacet
  facet normal -0 0 1
    outer loop
      vertex 0.706876 -2.17554 1.5
      vertex 0.927051 -2.85317 1.5
      vertex 0.771333 -2.14684 1.5
    endloop
  endfacet
  facet normal -0 0 1
    outer loop
      vertex 0.308123 -2.2603 1.5
      vertex 0.927051 -2.85317 1.5
      vertex 0.706876 -2.17554 1.5
    endloop
  endfacet
  facet normal 0 0 1
    outer loop
      vertex 0.927051 -2.85317 1.5
      vertex 0.308123 -2.2603 1.5
      vertex 0.313585 -2.98357 1.5
    endloop
  endfacet
  facet normal -0 0 1
    outer loop
      vertex 0.239108 -2.27497 1.5
      vertex 0.313585 -2.98357 1.5
      vertex 0.308123 -2.2603 1.5
    endloop
  endfacet
  facet normal -0 0 1
    outer loop
      vertex -0.239108 -2.27497 1.5
      vertex 0.313585 -2.98357 1.5
      vertex 0.239108 -2.27497 1.5
    endloop
  endfacet
  facet normal 0 0 1
    outer loop
      vertex -0.313585 -2.98357 1.5
      vertex -0.239108 -2.27497 1.5
      vertex -0.308123 -2.2603 1.5
    endloop
  endfacet
  facet normal 0 0 1
    outer loop
      vertex -0.239108 -2.27497 1.5
      vertex -0.313585 -2.98357 1.5
      vertex 0.313585 -2.98357 1.5
    endloop
  endfacet
  facet normal 0 0 1
    outer loop
      vertex -0.927051 -2.85317 1.5
      vertex -0.308123 -2.2603 1.5
      vertex -0.706876 -2.17554 1.5
    endloop
  endfacet
  facet normal 0 0 1
    outer loop
      vertex -0.927051 -2.85317 1.5
      vertex -0.706876 -2.17554 1.5
      vertex -0.771333 -2.14684 1.5
    endloop
  endfacet
  facet normal 0 0 1
    outer loop
      vertex -0.308123 -2.2603 1.5
      vertex -0.927051 -2.85317 1.5
      vertex -0.313585 -2.98357 1.5
    endloop
  endfacet
  facet normal 0 0 1
    outer loop
      vertex -1.5 -2.59808 1.5
      vertex -0.771333 -2.14684 1.5
      vertex -1.14375 -1.98103 1.5
    endloop
  endfacet
  facet normal 0 0 1
    outer loop
      vertex -1.5 -2.59808 1.5
      vertex -1.14375 -1.98103 1.5
      vertex -1.20083 -1.93956 1.5
    endloop
  endfacet
  facet normal 0 0 1
    outer loop
      vertex -0.771333 -2.14684 1.5
      vertex -1.5 -2.59808 1.5
      vertex -0.927051 -2.85317 1.5
    endloop
  endfacet
  facet normal 0 0 1
    outer loop
      vertex -2.00739 -2.22943 1.5
      vertex -1.20083 -1.93956 1.5
      vertex -1.53064 -1.69994 1.5
    endloop
  endfacet
  facet normal 0 0 1
    outer loop
      vertex -2.00739 -2.22943 1.5
      vertex -1.53064 -1.69994 1.5
      vertex -1.80341 -1.39699 1.5
    endloop
  endfacet
  facet normal 0 0 1
    outer loop
      vertex -2.42705 -1.76336 1.5
      vertex -1.80341 -1.39699 1.5
      vertex -1.85063 -1.34456 1.5
    endloop
  endfacet
  facet normal 0 0 1
    outer loop
      vertex -2.42705 -1.76336 1.5
      vertex -1.85063 -1.34456 1.5
      vertex -1.8859 -1.28345 1.5
    endloop
  endfacet
  facet normal 0 0 1
    outer loop
      vertex -1.20083 -1.93956 1.5
      vertex -2.00739 -2.22943 1.5
      vertex -1.5 -2.59808 1.5
    endloop
  endfacet
  facet normal -0 0 1
    outer loop
      vertex -2.74064 -1.22021 1.5
      vertex -1.8859 -1.28345 1.5
      vertex -2.08973 -0.93041 1.5
    endloop
  endfacet
  facet normal 0 0 1
    outer loop
      vertex -2.74064 -1.22021 1.5
      vertex -2.08973 -0.93041 1.5
      vertex -2.21571 -0.542701 1.5
    endloop
  endfacet
  facet normal 0 0 1
    outer loop
      vertex -2.93444 -0.623734 1.5
      vertex -2.21571 -0.542701 1.5
      vertex -2.23751 -0.475598 1.5
    endloop
  endfacet
  facet normal 0 0 1
    outer loop
      vertex -1.80341 -1.39699 1.5
      vertex -2.42705 -1.76336 1.5
      vertex -2.00739 -2.22943 1.5
    endloop
  endfacet
  facet normal 0 0 1
    outer loop
      vertex -2.93444 -0.623734 1.5
      vertex -2.23751 -0.475598 1.5
      vertex -2.24489 -0.405428 1.5
    endloop
  endfacet
  facet normal -0 0 1
    outer loop
      vertex -3 0 1.5
      vertex -2.24489 -0.405428 1.5
      vertex -2.2875 0 1.5
    endloop
  endfacet
  facet normal 0 0 1
    outer loop
      vertex -2.23751 0.475598 1.5
      vertex -2.93444 0.623734 1.5
      vertex -2.24489 0.405428 1.5
    endloop
  endfacet
  facet normal 0 0 1
    outer loop
      vertex -3 0 1.5
      vertex -2.24489 0.405428 1.5
      vertex -2.93444 0.623734 1.5
    endloop
  endfacet
  facet normal 0 0 1
    outer loop
      vertex -1.8859 -1.28345 1.5
      vertex -2.74064 -1.22021 1.5
      vertex -2.42705 -1.76336 1.5
    endloop
  endfacet
  facet normal 0 0 1
    outer loop
      vertex -2.24489 0.405428 1.5
      vertex -3 0 1.5
      vertex -2.2875 0 1.5
    endloop
  endfacet
  facet normal 0 0 1
    outer loop
      vertex -2.21571 -0.542701 1.5
      vertex -2.93444 -0.623734 1.5
      vertex -2.74064 -1.22021 1.5
    endloop
  endfacet
  facet normal 0 0 1
    outer loop
      vertex -2.24489 -0.405428 1.5
      vertex -3 0 1.5
      vertex -2.93444 -0.623734 1.5
    endloop
  endfacet
  facet normal -0.406737 0.913545 0
    outer loop
      vertex -0.927051 2.85317 -1.5
      vertex -1.5 2.59808 1.5
      vertex -0.927051 2.85317 1.5
    endloop
  endfacet
  facet normal -0.406737 0.913545 0
    outer loop
      vertex -1.5 2.59808 1.5
      vertex -0.927051 2.85317 -1.5
      vertex -1.5 2.59808 -1.5
    endloop
  endfacet
  facet normal 0.951056 -0.309017 0
    outer loop
      vertex 2.74064 -1.22021 1.5
      vertex 2.93444 -0.623734 -1.5
      vertex 2.93444 -0.623734 1.5
    endloop
  endfacet
  facet normal 0.951056 -0.309017 0
    outer loop
      vertex 2.93444 -0.623734 -1.5
      vertex 2.74064 -1.22021 1.5
      vertex 2.74064 -1.22021 -1.5
    endloop
  endfacet
  facet normal 0.866026 0.5 0
    outer loop
      vertex 2.74064 1.22021 1.5
      vertex 2.42705 1.76336 -1.5
      vertex 2.42705 1.76336 1.5
    endloop
  endfacet
  facet normal 0.866026 0.5 0
    outer loop
      vertex 2.42705 1.76336 -1.5
      vertex 2.74064 1.22021 1.5
      vertex 2.74064 1.22021 -1.5
    endloop
  endfacet
  facet normal 0.951056 0.309017 0
    outer loop
      vertex 2.93444 0.623734 1.5
      vertex 2.74064 1.22021 -1.5
      vertex 2.74064 1.22021 1.5
    endloop
  endfacet
  facet normal 0.951056 0.309017 0
    outer loop
      vertex 2.74064 1.22021 -1.5
      vertex 2.93444 0.623734 1.5
      vertex 2.93444 0.623734 -1.5
    endloop
  endfacet
  facet normal 0.743144 0.669131 0
    outer loop
      vertex 2.42705 1.76336 1.5
      vertex 2.00739 2.22943 -1.5
      vertex 2.00739 2.22943 1.5
    endloop
  endfacet
  facet normal 0.743144 0.669131 0
    outer loop
      vertex 2.00739 2.22943 -1.5
      vertex 2.42705 1.76336 1.5
      vertex 2.42705 1.76336 -1.5
    endloop
  endfacet
  facet normal 0.207911 0.978148 -0
    outer loop
      vertex 0.927051 2.85317 -1.5
      vertex 0.313585 2.98357 1.5
      vertex 0.927051 2.85317 1.5
    endloop
  endfacet
  facet normal 0.207911 0.978148 0
    outer loop
      vertex 0.313585 2.98357 1.5
      vertex 0.927051 2.85317 -1.5
      vertex 0.313585 2.98357 -1.5
    endloop
  endfacet
  facet normal -0.866026 0.5 0
    outer loop
      vertex -2.74064 1.22021 -1.5
      vertex -2.42705 1.76336 1.5
      vertex -2.42705 1.76336 -1.5
    endloop
  endfacet
  facet normal -0.866026 0.5 0
    outer loop
      vertex -2.42705 1.76336 1.5
      vertex -2.74064 1.22021 -1.5
      vertex -2.74064 1.22021 1.5
    endloop
  endfacet
  facet normal -0.951056 0.309017 0
    outer loop
      vertex -2.93444 0.623734 -1.5
      vertex -2.74064 1.22021 1.5
      vertex -2.74064 1.22021 -1.5
    endloop
  endfacet
  facet normal -0.951056 0.309017 0
    outer loop
      vertex -2.74064 1.22021 1.5
      vertex -2.93444 0.623734 -1.5
      vertex -2.93444 0.623734 1.5
    endloop
  endfacet
  facet normal -0.587785 0.809017 0
    outer loop
      vertex -1.5 2.59808 -1.5
      vertex -2.00739 2.22943 1.5
      vertex -1.5 2.59808 1.5
    endloop
  endfacet
  facet normal -0.587785 0.809017 0
    outer loop
      vertex -2.00739 2.22943 1.5
      vertex -1.5 2.59808 -1.5
      vertex -2.00739 2.22943 -1.5
    endloop
  endfacet
  facet normal -0.207911 0.978148 0
    outer loop
      vertex -0.313585 2.98357 -1.5
      vertex -0.927051 2.85317 1.5
      vertex -0.313585 2.98357 1.5
    endloop
  endfacet
  facet normal -0.207911 0.978148 0
    outer loop
      vertex -0.927051 2.85317 1.5
      vertex -0.313585 2.98357 -1.5
      vertex -0.927051 2.85317 -1.5
    endloop
  endfacet
  facet normal 0.994522 -0.104529 0
    outer loop
      vertex 2.93444 -0.623734 1.5
      vertex 3 0 -1.5
      vertex 3 0 1.5
    endloop
  endfacet
  facet normal 0.994522 -0.104529 0
    outer loop
      vertex 3 0 -1.5
      vertex 2.93444 -0.623734 1.5
      vertex 2.93444 -0.623734 -1.5
    endloop
  endfacet
  facet normal 0.207911 -0.978148 0
    outer loop
      vertex 0.313585 -2.98357 -1.5
      vertex 0.927051 -2.85317 1.5
      vertex 0.313585 -2.98357 1.5
    endloop
  endfacet
  facet normal 0.207911 -0.978148 0
    outer loop
      vertex 0.927051 -2.85317 1.5
      vertex 0.313585 -2.98357 -1.5
      vertex 0.927051 -2.85317 -1.5
    endloop
  endfacet
  facet normal 0.866026 -0.5 0
    outer loop
      vertex 2.42705 -1.76336 1.5
      vertex 2.74064 -1.22021 -1.5
      vertex 2.74064 -1.22021 1.5
    endloop
  endfacet
  facet normal 0.866026 -0.5 0
    outer loop
      vertex 2.74064 -1.22021 -1.5
      vertex 2.42705 -1.76336 1.5
      vertex 2.42705 -1.76336 -1.5
    endloop
  endfacet
  facet normal 0 0 -1
    outer loop
      vertex 1.35 0 -1.5
      vertex 3 0 -1.5
      vertex 2.93444 -0.623734 -1.5
    endloop
  endfacet
  facet normal 0 0 -1
    outer loop
      vertex 1.3205 -0.280681 -1.5
      vertex 2.93444 -0.623734 -1.5
      vertex 2.74064 -1.22021 -1.5
    endloop
  endfacet
  facet normal 0 0 -1
    outer loop
      vertex 3 0 -1.5
      vertex 1.35 0 -1.5
      vertex 2.93444 0.623734 -1.5
    endloop
  endfacet
  facet normal 0 0 -1
    outer loop
      vertex 1.23329 -0.549094 -1.5
      vertex 2.74064 -1.22021 -1.5
      vertex 2.42705 -1.76336 -1.5
    endloop
  endfacet
  facet normal 0 0 -1
    outer loop
      vertex 1.3205 0.280681 -1.5
      vertex 2.93444 0.623734 -1.5
      vertex 1.35 0 -1.5
    endloop
  endfacet
  facet normal 0 0 -1
    outer loop
      vertex 1.09217 -0.793509 -1.5
      vertex 2.42705 -1.76336 -1.5
      vertex 2.00739 -2.22943 -1.5
    endloop
  endfacet
  facet normal -0 0 -1
    outer loop
      vertex 2.93444 0.623734 -1.5
      vertex 1.3205 0.280681 -1.5
      vertex 2.74064 1.22021 -1.5
    endloop
  endfacet
  facet normal 0 0 -1
    outer loop
      vertex 0.903326 -1.00325 -1.5
      vertex 2.00739 -2.22943 -1.5
      vertex 1.5 -2.59808 -1.5
    endloop
  endfacet
  facet normal 0 0 -1
    outer loop
      vertex 1.23329 0.549094 -1.5
      vertex 2.74064 1.22021 -1.5
      vertex 1.3205 0.280681 -1.5
    endloop
  endfacet
  facet normal -0 0 -1
    outer loop
      vertex 2.74064 1.22021 -1.5
      vertex 1.23329 0.549094 -1.5
      vertex 2.42705 1.76336 -1.5
    endloop
  endfacet
  facet normal 0 0 -1
    outer loop
      vertex 2.93444 -0.623734 -1.5
      vertex 1.3205 -0.280681 -1.5
      vertex 1.35 0 -1.5
    endloop
  endfacet
  facet normal 0 0 -1
    outer loop
      vertex 2.74064 -1.22021 -1.5
      vertex 1.23329 -0.549094 -1.5
      vertex 1.3205 -0.280681 -1.5
    endloop
  endfacet
  facet normal 0 0 -1
    outer loop
      vertex 2.42705 -1.76336 -1.5
      vertex 1.09217 -0.793509 -1.5
      vertex 1.23329 -0.549094 -1.5
    endloop
  endfacet
  facet normal 0 0 -1
    outer loop
      vertex 0.674999 -1.16913 -1.5
      vertex 1.5 -2.59808 -1.5
      vertex 0.927051 -2.85317 -1.5
    endloop
  endfacet
  facet normal 0 0 -1
    outer loop
      vertex 2.00739 -2.22943 -1.5
      vertex 0.903326 -1.00325 -1.5
      vertex 1.09217 -0.793509 -1.5
    endloop
  endfacet
  facet normal 0 0 -1
    outer loop
      vertex 1.5 -2.59808 -1.5
      vertex 0.674999 -1.16913 -1.5
      vertex 0.903326 -1.00325 -1.5
    endloop
  endfacet
  facet normal 0 0 -1
    outer loop
      vertex 0.927051 -2.85317 -1.5
      vertex 0.417172 -1.28393 -1.5
      vertex 0.674999 -1.16913 -1.5
    endloop
  endfacet
  facet normal 0 0 -1
    outer loop
      vertex 0.313585 -2.98357 -1.5
      vertex 0.417172 -1.28393 -1.5
      vertex 0.927051 -2.85317 -1.5
    endloop
  endfacet
  facet normal 0 0 -1
    outer loop
      vertex 0.313585 -2.98357 -1.5
      vertex 0.141113 -1.3426 -1.5
      vertex 0.417172 -1.28393 -1.5
    endloop
  endfacet
  facet normal 0 0 -1
    outer loop
      vertex 0.313585 -2.98357 -1.5
      vertex -0.141113 -1.3426 -1.5
      vertex 0.141113 -1.3426 -1.5
    endloop
  endfacet
  facet normal 0 0 -1
    outer loop
      vertex -0.313585 -2.98357 -1.5
      vertex -0.141113 -1.3426 -1.5
      vertex 0.313585 -2.98357 -1.5
    endloop
  endfacet
  facet normal 0 0 -1
    outer loop
      vertex -0.313585 -2.98357 -1.5
      vertex -0.417172 -1.28393 -1.5
      vertex -0.141113 -1.3426 -1.5
    endloop
  endfacet
  facet normal 0 0 -1
    outer loop
      vertex -0.927051 -2.85317 -1.5
      vertex -0.417172 -1.28393 -1.5
      vertex -0.313585 -2.98357 -1.5
    endloop
  endfacet
  facet normal -0 0 -1
    outer loop
      vertex -0.417172 -1.28393 -1.5
      vertex -0.927051 -2.85317 -1.5
      vertex -0.674999 -1.16913 -1.5
    endloop
  endfacet
  facet normal 0 0 -1
    outer loop
      vertex -1.5 -2.59808 -1.5
      vertex -0.674999 -1.16913 -1.5
      vertex -0.927051 -2.85317 -1.5
    endloop
  endfacet
  facet normal -0 0 -1
    outer loop
      vertex -0.674999 -1.16913 -1.5
      vertex -1.5 -2.59808 -1.5
      vertex -0.903326 -1.00325 -1.5
    endloop
  endfacet
  facet normal 0 0 -1
    outer loop
      vertex -2.00739 -2.22943 -1.5
      vertex -0.903326 -1.00325 -1.5
      vertex -1.5 -2.59808 -1.5
    endloop
  endfacet
  facet normal -0 0 -1
    outer loop
      vertex -0.903326 -1.00325 -1.5
      vertex -2.00739 -2.22943 -1.5
      vertex -1.09217 -0.793509 -1.5
    endloop
  endfacet
  facet normal 0 0 -1
    outer loop
      vertex -2.42705 -1.76336 -1.5
      vertex -1.09217 -0.793509 -1.5
      vertex -2.00739 -2.22943 -1.5
    endloop
  endfacet
  facet normal -0 0 -1
    outer loop
      vertex -1.09217 -0.793509 -1.5
      vertex -2.42705 -1.76336 -1.5
      vertex -1.23329 -0.549094 -1.5
    endloop
  endfacet
  facet normal 0 0 -1
    outer loop
      vertex -2.74064 -1.22021 -1.5
      vertex -1.23329 -0.549094 -1.5
      vertex -2.42705 -1.76336 -1.5
    endloop
  endfacet
  facet normal -0 0 -1
    outer loop
      vertex -1.23329 -0.549094 -1.5
      vertex -2.74064 -1.22021 -1.5
      vertex -1.3205 -0.280681 -1.5
    endloop
  endfacet
  facet normal 0 0 -1
    outer loop
      vertex -1.35 0 -1.5
      vertex -2.00739 2.22943 -1.5
      vertex -1.5 2.59808 -1.5
    endloop
  endfacet
  facet normal 0 0 -1
    outer loop
      vertex -2.93444 -0.623734 -1.5
      vertex -1.3205 -0.280681 -1.5
      vertex -2.74064 -1.22021 -1.5
    endloop
  endfacet
  facet normal 0 0 -1
    outer loop
      vertex -1.35 0 -1.5
      vertex -2.42705 1.76336 -1.5
      vertex -2.00739 2.22943 -1.5
    endloop
  endfacet
  facet normal -0 0 -1
    outer loop
      vertex -1.3205 -0.280681 -1.5
      vertex -2.93444 -0.623734 -1.5
      vertex -1.35 0 -1.5
    endloop
  endfacet
  facet normal 0 0 -1
    outer loop
      vertex -1.35 0 -1.5
      vertex -2.74064 1.22021 -1.5
      vertex -2.42705 1.76336 -1.5
    endloop
  endfacet
  facet normal 0 0 -1
    outer loop
      vertex -3 0 -1.5
      vertex -1.35 0 -1.5
      vertex -2.93444 -0.623734 -1.5
    endloop
  endfacet
  facet normal 0 0 -1
    outer loop
      vertex -1.35 0 -1.5
      vertex -2.93444 0.623734 -1.5
      vertex -2.74064 1.22021 -1.5
    endloop
  endfacet
  facet normal 0 0 -1
    outer loop
      vertex -1.35 0 -1.5
      vertex -3 0 -1.5
      vertex -2.93444 0.623734 -1.5
    endloop
  endfacet
  facet normal 0 0 -1
    outer loop
      vertex 1.09217 0.793509 -1.5
      vertex 2.42705 1.76336 -1.5
      vertex 1.23329 0.549094 -1.5
    endloop
  endfacet
  facet normal -0 0 -1
    outer loop
      vertex 2.42705 1.76336 -1.5
      vertex 1.09217 0.793509 -1.5
      vertex 2.00739 2.22943 -1.5
    endloop
  endfacet
  facet normal 0 0 -1
    outer loop
      vertex 0.903326 1.00325 -1.5
      vertex 2.00739 2.22943 -1.5
      vertex 1.09217 0.793509 -1.5
    endloop
  endfacet
  facet normal -0 0 -1
    outer loop
      vertex 2.00739 2.22943 -1.5
      vertex 0.903326 1.00325 -1.5
      vertex 1.5 2.59808 -1.5
    endloop
  endfacet
  facet normal 0 0 -1
    outer loop
      vertex 0.674999 1.16913 -1.5
      vertex 1.5 2.59808 -1.5
      vertex 0.903326 1.00325 -1.5
    endloop
  endfacet
  facet normal -0 0 -1
    outer loop
      vertex 1.5 2.59808 -1.5
      vertex 0.674999 1.16913 -1.5
      vertex 0.927051 2.85317 -1.5
    endloop
  endfacet
  facet normal 0 0 -1
    outer loop
      vertex 0.417172 1.28393 -1.5
      vertex 0.927051 2.85317 -1.5
      vertex 0.674999 1.16913 -1.5
    endloop
  endfacet
  facet normal 0 0 -1
    outer loop
      vertex 0.417172 1.28393 -1.5
      vertex 0.313585 2.98357 -1.5
      vertex 0.927051 2.85317 -1.5
    endloop
  endfacet
  facet normal 0 0 -1
    outer loop
      vertex 0.141113 1.3426 -1.5
      vertex 0.313585 2.98357 -1.5
      vertex 0.417172 1.28393 -1.5
    endloop
  endfacet
  facet normal 0 0 -1
    outer loop
      vertex -0.141113 1.3426 -1.5
      vertex 0.313585 2.98357 -1.5
      vertex 0.141113 1.3426 -1.5
    endloop
  endfacet
  facet normal 0 0 -1
    outer loop
      vertex -0.141113 1.3426 -1.5
      vertex -0.313585 2.98357 -1.5
      vertex 0.313585 2.98357 -1.5
    endloop
  endfacet
  facet normal 0 0 -1
    outer loop
      vertex -0.417172 1.28393 -1.5
      vertex -0.313585 2.98357 -1.5
      vertex -0.141113 1.3426 -1.5
    endloop
  endfacet
  facet normal 0 0 -1
    outer loop
      vertex -0.927051 2.85317 -1.5
      vertex -0.417172 1.28393 -1.5
      vertex -0.674999 1.16913 -1.5
    endloop
  endfacet
  facet normal 0 0 -1
    outer loop
      vertex -1.5 2.59808 -1.5
      vertex -0.674999 1.16913 -1.5
      vertex -0.903326 1.00325 -1.5
    endloop
  endfacet
  facet normal 0 0 -1
    outer loop
      vertex -0.417172 1.28393 -1.5
      vertex -0.927051 2.85317 -1.5
      vertex -0.313585 2.98357 -1.5
    endloop
  endfacet
  facet normal 0 0 -1
    outer loop
      vertex -1.5 2.59808 -1.5
      vertex -0.903326 1.00325 -1.5
      vertex -1.09217 0.793509 -1.5
    endloop
  endfacet
  facet normal 0 0 -1
    outer loop
      vertex -1.5 2.59808 -1.5
      vertex -1.09217 0.793509 -1.5
      vertex -1.23329 0.549094 -1.5
    endloop
  endfacet
  facet normal 0 0 -1
    outer loop
      vertex -1.5 2.59808 -1.5
      vertex -1.23329 0.549094 -1.5
      vertex -1.3205 0.280681 -1.5
    endloop
  endfacet
  facet normal 0 0 -1
    outer loop
      vertex -0.674999 1.16913 -1.5
      vertex -1.5 2.59808 -1.5
      vertex -0.927051 2.85317 -1.5
    endloop
  endfacet
  facet normal 0 0 -1
    outer loop
      vertex -1.5 2.59808 -1.5
      vertex -1.3205 0.280681 -1.5
      vertex -1.35 0 -1.5
    endloop
  endfacet
  facet normal 0.587786 -0.809016 0
    outer loop
      vertex 1.5 -2.59808 -1.5
      vertex 2.00739 -2.22943 1.5
      vertex 1.5 -2.59808 1.5
    endloop
  endfacet
  facet normal 0.587786 -0.809016 0
    outer loop
      vertex 2.00739 -2.22943 1.5
      vertex 1.5 -2.59808 -1.5
      vertex 2.00739 -2.22943 -1.5
    endloop
  endfacet
  facet normal 0.406737 -0.913545 0
    outer loop
      vertex 0.927051 -2.85317 -1.5
      vertex 1.5 -2.59808 1.5
      vertex 0.927051 -2.85317 1.5
    endloop
  endfacet
  facet normal 0.406737 -0.913545 0
    outer loop
      vertex 1.5 -2.59808 1.5
      vertex 0.927051 -2.85317 -1.5
      vertex 1.5 -2.59808 -1.5
    endloop
  endfacet
  facet normal -0.207911 -0.978148 0
    outer loop
      vertex -0.927051 -2.85317 -1.5
      vertex -0.313585 -2.98357 1.5
      vertex -0.927051 -2.85317 1.5
    endloop
  endfacet
  facet normal -0.207911 -0.978148 -0
    outer loop
      vertex -0.313585 -2.98357 1.5
      vertex -0.927051 -2.85317 -1.5
      vertex -0.313585 -2.98357 -1.5
    endloop
  endfacet
  facet normal -0.743144 -0.669131 0
    outer loop
      vertex -2.00739 -2.22943 -1.5
      vertex -2.42705 -1.76336 1.5
      vertex -2.42705 -1.76336 -1.5
    endloop
  endfacet
  facet normal -0.743144 -0.669131 0
    outer loop
      vertex -2.42705 -1.76336 1.5
      vertex -2.00739 -2.22943 -1.5
      vertex -2.00739 -2.22943 1.5
    endloop
  endfacet
  facet normal -0.866026 -0.5 0
    outer loop
      vertex -2.42705 -1.76336 -1.5
      vertex -2.74064 -1.22021 1.5
      vertex -2.74064 -1.22021 -1.5
    endloop
  endfacet
  facet normal -0.866026 -0.5 0
    outer loop
      vertex -2.74064 -1.22021 1.5
      vertex -2.42705 -1.76336 -1.5
      vertex -2.42705 -1.76336 1.5
    endloop
  endfacet
  facet normal -0.951056 -0.309017 0
    outer loop
      vertex -2.74064 -1.22021 -1.5
      vertex -2.93444 -0.623734 1.5
      vertex -2.93444 -0.623734 -1.5
    endloop
  endfacet
  facet normal -0.951056 -0.309017 0
    outer loop
      vertex -2.93444 -0.623734 1.5
      vertex -2.74064 -1.22021 -1.5
      vertex -2.74064 -1.22021 1.5
    endloop
  endfacet
  facet normal -0.994522 -0.104529 0
    outer loop
      vertex -2.93444 -0.623734 -1.5
      vertex -3 0 1.5
      vertex -3 0 -1.5
    endloop
  endfacet
  facet normal -0.994522 -0.104529 0
    outer loop
      vertex -3 0 1.5
      vertex -2.93444 -0.623734 -1.5
      vertex -2.93444 -0.623734 1.5
    endloop
  endfacet
  facet normal 0.743144 -0.669131 0
    outer loop
      vertex 2.00739 -2.22943 1.5
      vertex 2.42705 -1.76336 -1.5
      vertex 2.42705 -1.76336 1.5
    endloop
  endfacet
  facet normal 0.743144 -0.669131 0
    outer loop
      vertex 2.42705 -1.76336 -1.5
      vertex 2.00739 -2.22943 1.5
      vertex 2.00739 -2.22943 -1.5
    endloop
  endfacet
  facet normal -0.406737 -0.913545 0
    outer loop
      vertex -1.5 -2.59808 -1.5
      vertex -0.927051 -2.85317 1.5
      vertex -1.5 -2.59808 1.5
    endloop
  endfacet
  facet normal -0.406737 -0.913545 -0
    outer loop
      vertex -0.927051 -2.85317 1.5
      vertex -1.5 -2.59808 -1.5
      vertex -0.927051 -2.85317 -1.5
    endloop
  endfacet
  facet normal -0.587786 -0.809016 0
    outer loop
      vertex -2.00739 -2.22943 -1.5
      vertex -1.5 -2.59808 1.5
      vertex -2.00739 -2.22943 1.5
    endloop
  endfacet
  facet normal -0.587786 -0.809016 -0
    outer loop
      vertex -1.5 -2.59808 1.5
      vertex -2.00739 -2.22943 -1.5
      vertex -1.5 -2.59808 -1.5
    endloop
  endfacet
endsolid OpenSCAD_Model
