solid OpenSCAD_Model
  facet normal 1 -0 0
    outer loop
      vertex 89 21 -4.4
      vertex 89 33 -7
      vertex 89 33 -4.4
    endloop
  endfacet
  facet normal 1 0 0
    outer loop
      vertex 89 33 -7
      vertex 89 21 -4.4
      vertex 89 21 -7
    endloop
  endfacet
  facet normal 0 0 -1
    outer loop
      vertex 81 21 -7
      vertex 89 33 -7
      vertex 89 21 -7
    endloop
  endfacet
  facet normal -0 0 -1
    outer loop
      vertex 89 33 -7
      vertex 81 21 -7
      vertex 81 33 -7
    endloop
  endfacet
  facet normal -1 0 0
    outer loop
      vertex 81 21 -7
      vertex 81 33 -4.4
      vertex 81 33 -7
    endloop
  endfacet
  facet normal -1 -0 0
    outer loop
      vertex 81 33 -4.4
      vertex 81 21 -7
      vertex 81 21 -4.4
    endloop
  endfacet
  facet normal 0 1 -0
    outer loop
      vertex 89 33 -7
      vertex 81 33 -4.4
      vertex 89 33 -4.4
    endloop
  endfacet
  facet normal 0 1 0
    outer loop
      vertex 81 33 -4.4
      vertex 89 33 -7
      vertex 81 33 -7
    endloop
  endfacet
  facet normal -0 0 1
    outer loop
      vertex 67 55 -4
      vertex 91 19 -4
      vertex 91 55 -4
    endloop
  endfacet
  facet normal 0 0 1
    outer loop
      vertex 91 19 -4
      vertex 67 55 -4
      vertex 67 19 -4
    endloop
  endfacet
  facet normal 0 -1 0
    outer loop
      vertex 81 21 -7
      vertex 89 21 -4.4
      vertex 81 21 -4.4
    endloop
  endfacet
  facet normal 0 -1 -0
    outer loop
      vertex 89 21 -4.4
      vertex 81 21 -7
      vertex 89 21 -7
    endloop
  endfacet
  facet normal 1 -0 0
    outer loop
      vertex 77 21 -4.4
      vertex 77 33 -7
      vertex 77 33 -4.4
    endloop
  endfacet
  facet normal 1 0 0
    outer loop
      vertex 77 33 -7
      vertex 77 21 -4.4
      vertex 77 21 -7
    endloop
  endfacet
  facet normal 0 0 -1
    outer loop
      vertex 69 21 -7
      vertex 77 33 -7
      vertex 77 21 -7
    endloop
  endfacet
  facet normal -0 0 -1
    outer loop
      vertex 77 33 -7
      vertex 69 21 -7
      vertex 69 33 -7
    endloop
  endfacet
  facet normal -1 0 0
    outer loop
      vertex 69 21 -7
      vertex 69 33 -4.4
      vertex 69 33 -7
    endloop
  endfacet
  facet normal -1 -0 0
    outer loop
      vertex 69 33 -4.4
      vertex 69 21 -7
      vertex 69 21 -4.4
    endloop
  endfacet
  facet normal 0 -1 0
    outer loop
      vertex 69 21 -7
      vertex 77 21 -4.4
      vertex 69 21 -4.4
    endloop
  endfacet
  facet normal 0 -1 -0
    outer loop
      vertex 77 21 -4.4
      vertex 69 21 -7
      vertex 77 21 -7
    endloop
  endfacet
  facet normal 0 1 -0
    outer loop
      vertex 77 33 -7
      vertex 69 33 -4.4
      vertex 77 33 -4.4
    endloop
  endfacet
  facet normal 0 1 0
    outer loop
      vertex 69 33 -4.4
      vertex 77 33 -7
      vertex 69 33 -7
    endloop
  endfacet
  facet normal 1 -0 0
    outer loop
      vertex 89 41 -4.4
      vertex 89 53 -7
      vertex 89 53 -4.4
    endloop
  endfacet
  facet normal 1 0 0
    outer loop
      vertex 89 53 -7
      vertex 89 41 -4.4
      vertex 89 41 -7
    endloop
  endfacet
  facet normal 0 0 -1
    outer loop
      vertex 81 41 -7
      vertex 89 53 -7
      vertex 89 41 -7
    endloop
  endfacet
  facet normal -0 0 -1
    outer loop
      vertex 89 53 -7
      vertex 81 41 -7
      vertex 81 53 -7
    endloop
  endfacet
  facet normal -1 0 0
    outer loop
      vertex 81 41 -7
      vertex 81 53 -4.4
      vertex 81 53 -7
    endloop
  endfacet
  facet normal -1 -0 0
    outer loop
      vertex 81 53 -4.4
      vertex 81 41 -7
      vertex 81 41 -4.4
    endloop
  endfacet
  facet normal 0 1 -0
    outer loop
      vertex 89 53 -7
      vertex 81 53 -4.4
      vertex 89 53 -4.4
    endloop
  endfacet
  facet normal 0 1 0
    outer loop
      vertex 81 53 -4.4
      vertex 89 53 -7
      vertex 81 53 -7
    endloop
  endfacet
  facet normal 0 -1 0
    outer loop
      vertex 81 41 -7
      vertex 89 41 -4.4
      vertex 81 41 -4.4
    endloop
  endfacet
  facet normal 0 -1 -0
    outer loop
      vertex 89 41 -4.4
      vertex 81 41 -7
      vertex 89 41 -7
    endloop
  endfacet
  facet normal 1 -0 0
    outer loop
      vertex 77 41 -4.4
      vertex 77 53 -7
      vertex 77 53 -4.4
    endloop
  endfacet
  facet normal 1 0 0
    outer loop
      vertex 77 53 -7
      vertex 77 41 -4.4
      vertex 77 41 -7
    endloop
  endfacet
  facet normal 0 0 -1
    outer loop
      vertex 69 41 -7
      vertex 77 53 -7
      vertex 77 41 -7
    endloop
  endfacet
  facet normal -0 0 -1
    outer loop
      vertex 77 53 -7
      vertex 69 41 -7
      vertex 69 53 -7
    endloop
  endfacet
  facet normal -1 0 0
    outer loop
      vertex 69 41 -7
      vertex 69 53 -4.4
      vertex 69 53 -7
    endloop
  endfacet
  facet normal -1 -0 0
    outer loop
      vertex 69 53 -4.4
      vertex 69 41 -7
      vertex 69 41 -4.4
    endloop
  endfacet
  facet normal 0 -1 0
    outer loop
      vertex 69 41 -7
      vertex 77 41 -4.4
      vertex 69 41 -4.4
    endloop
  endfacet
  facet normal 0 -1 -0
    outer loop
      vertex 77 41 -4.4
      vertex 69 41 -7
      vertex 77 41 -7
    endloop
  endfacet
  facet normal 0 1 -0
    outer loop
      vertex 77 53 -7
      vertex 69 53 -4.4
      vertex 77 53 -4.4
    endloop
  endfacet
  facet normal 0 1 0
    outer loop
      vertex 69 53 -4.4
      vertex 77 53 -7
      vertex 69 53 -7
    endloop
  endfacet
  facet normal 1 -0 0
    outer loop
      vertex 91 19 -4
      vertex 91 55 -4.4
      vertex 91 55 -4
    endloop
  endfacet
  facet normal 1 0 0
    outer loop
      vertex 91 55 -4.4
      vertex 91 19 -4
      vertex 91 19 -4.4
    endloop
  endfacet
  facet normal 0 0 -1
    outer loop
      vertex 69 33 -4.4
      vertex 77 41 -4.4
      vertex 77 33 -4.4
    endloop
  endfacet
  facet normal -0 0 -1
    outer loop
      vertex 77 41 -4.4
      vertex 69 33 -4.4
      vertex 69 41 -4.4
    endloop
  endfacet
  facet normal 0 0 -1
    outer loop
      vertex 81 33 -4.4
      vertex 89 41 -4.4
      vertex 89 33 -4.4
    endloop
  endfacet
  facet normal -0 0 -1
    outer loop
      vertex 89 41 -4.4
      vertex 81 33 -4.4
      vertex 81 41 -4.4
    endloop
  endfacet
  facet normal 0 0 -1
    outer loop
      vertex 89 33 -4.4
      vertex 91 19 -4.4
      vertex 89 21 -4.4
    endloop
  endfacet
  facet normal 0 0 -1
    outer loop
      vertex 91 19 -4.4
      vertex 81 21 -4.4
      vertex 89 21 -4.4
    endloop
  endfacet
  facet normal 0 0 -1
    outer loop
      vertex 77 33 -4.4
      vertex 81 33 -4.4
      vertex 81 21 -4.4
    endloop
  endfacet
  facet normal 0 0 -1
    outer loop
      vertex 81 33 -4.4
      vertex 77 33 -4.4
      vertex 81 41 -4.4
    endloop
  endfacet
  facet normal 0 0 -1
    outer loop
      vertex 77 33 -4.4
      vertex 81 21 -4.4
      vertex 77 21 -4.4
    endloop
  endfacet
  facet normal 0 0 -1
    outer loop
      vertex 91 19 -4.4
      vertex 77 21 -4.4
      vertex 81 21 -4.4
    endloop
  endfacet
  facet normal 0 0 -1
    outer loop
      vertex 67 19 -4.4
      vertex 77 21 -4.4
      vertex 91 19 -4.4
    endloop
  endfacet
  facet normal 0 0 -1
    outer loop
      vertex 67 19 -4.4
      vertex 69 33 -4.4
      vertex 69 21 -4.4
    endloop
  endfacet
  facet normal -0 0 -1
    outer loop
      vertex 69 33 -4.4
      vertex 67 19 -4.4
      vertex 69 41 -4.4
    endloop
  endfacet
  facet normal 0 0 -1
    outer loop
      vertex 67 55 -4.4
      vertex 69 41 -4.4
      vertex 67 19 -4.4
    endloop
  endfacet
  facet normal -0 0 -1
    outer loop
      vertex 77 21 -4.4
      vertex 67 19 -4.4
      vertex 69 21 -4.4
    endloop
  endfacet
  facet normal 0 0 -1
    outer loop
      vertex 91 19 -4.4
      vertex 89 33 -4.4
      vertex 91 55 -4.4
    endloop
  endfacet
  facet normal 0 0 -1
    outer loop
      vertex 89 41 -4.4
      vertex 91 55 -4.4
      vertex 89 33 -4.4
    endloop
  endfacet
  facet normal 0 0 -1
    outer loop
      vertex 89 53 -4.4
      vertex 91 55 -4.4
      vertex 89 41 -4.4
    endloop
  endfacet
  facet normal 0 0 -1
    outer loop
      vertex 81 53 -4.4
      vertex 91 55 -4.4
      vertex 89 53 -4.4
    endloop
  endfacet
  facet normal 0 0 -1
    outer loop
      vertex 77 41 -4.4
      vertex 81 41 -4.4
      vertex 77 33 -4.4
    endloop
  endfacet
  facet normal 0 0 -1
    outer loop
      vertex 81 41 -4.4
      vertex 77 41 -4.4
      vertex 81 53 -4.4
    endloop
  endfacet
  facet normal 0 0 -1
    outer loop
      vertex 77 53 -4.4
      vertex 81 53 -4.4
      vertex 77 41 -4.4
    endloop
  endfacet
  facet normal 0 0 -1
    outer loop
      vertex 77 53 -4.4
      vertex 91 55 -4.4
      vertex 81 53 -4.4
    endloop
  endfacet
  facet normal 0 0 -1
    outer loop
      vertex 67 55 -4.4
      vertex 77 53 -4.4
      vertex 69 53 -4.4
    endloop
  endfacet
  facet normal 0 0 -1
    outer loop
      vertex 77 53 -4.4
      vertex 67 55 -4.4
      vertex 91 55 -4.4
    endloop
  endfacet
  facet normal 0 0 -1
    outer loop
      vertex 69 41 -4.4
      vertex 67 55 -4.4
      vertex 69 53 -4.4
    endloop
  endfacet
  facet normal -1 0 0
    outer loop
      vertex 67 19 -4.4
      vertex 67 55 -4
      vertex 67 55 -4.4
    endloop
  endfacet
  facet normal -1 -0 0
    outer loop
      vertex 67 55 -4
      vertex 67 19 -4.4
      vertex 67 19 -4
    endloop
  endfacet
  facet normal 0 1 -0
    outer loop
      vertex 91 55 -4.4
      vertex 67 55 -4
      vertex 91 55 -4
    endloop
  endfacet
  facet normal 0 1 0
    outer loop
      vertex 67 55 -4
      vertex 91 55 -4.4
      vertex 67 55 -4.4
    endloop
  endfacet
  facet normal 0 -1 0
    outer loop
      vertex 67 19 -4.4
      vertex 91 19 -4
      vertex 67 19 -4
    endloop
  endfacet
  facet normal 0 -1 -0
    outer loop
      vertex 91 19 -4
      vertex 67 19 -4.4
      vertex 91 19 -4.4
    endloop
  endfacet
endsolid OpenSCAD_Model
