solid OpenSCAD_Model
  facet normal -1 0 0
    outer loop
      vertex 0 0 0
      vertex 0 12 3
      vertex 0 12 0
    endloop
  endfacet
  facet normal -1 -0 0
    outer loop
      vertex 0 12 3
      vertex 0 0 0
      vertex 0 0 3
    endloop
  endfacet
  facet normal -0 0 1
    outer loop
      vertex 0 12 3
      vertex 8 0 3
      vertex 8 12 3
    endloop
  endfacet
  facet normal 0 0 1
    outer loop
      vertex 8 0 3
      vertex 0 12 3
      vertex 0 0 3
    endloop
  endfacet
  facet normal 1 -0 0
    outer loop
      vertex 8 0 3
      vertex 8 12 0
      vertex 8 12 3
    endloop
  endfacet
  facet normal 1 0 0
    outer loop
      vertex 8 12 0
      vertex 8 0 3
      vertex 8 0 0
    endloop
  endfacet
  facet normal 0 1 -0
    outer loop
      vertex 8 12 0
      vertex 0 12 3
      vertex 8 12 3
    endloop
  endfacet
  facet normal 0 1 0
    outer loop
      vertex 0 12 3
      vertex 8 12 0
      vertex 0 12 0
    endloop
  endfacet
  facet normal 0 0 -1
    outer loop
      vertex 0 0 0
      vertex 8 12 0
      vertex 8 0 0
    endloop
  endfacet
  facet normal -0 0 -1
    outer loop
      vertex 8 12 0
      vertex 0 0 0
      vertex 0 12 0
    endloop
  endfacet
  facet normal 0 -1 0
    outer loop
      vertex 0 0 0
      vertex 8 0 3
      vertex 0 0 3
    endloop
  endfacet
  facet normal 0 -1 -0
    outer loop
      vertex 8 0 3
      vertex 0 0 0
      vertex 8 0 0
    endloop
  endfacet
  facet normal -1 0 0
    outer loop
      vertex 12 0 0
      vertex 12 12 3
      vertex 12 12 0
    endloop
  endfacet
  facet normal -1 -0 0
    outer loop
      vertex 12 12 3
      vertex 12 0 0
      vertex 12 0 3
    endloop
  endfacet
  facet normal -0 0 1
    outer loop
      vertex 12 12 3
      vertex 20 0 3
      vertex 20 12 3
    endloop
  endfacet
  facet normal 0 0 1
    outer loop
      vertex 20 0 3
      vertex 12 12 3
      vertex 12 0 3
    endloop
  endfacet
  facet normal 1 -0 0
    outer loop
      vertex 20 0 3
      vertex 20 12 0
      vertex 20 12 3
    endloop
  endfacet
  facet normal 1 0 0
    outer loop
      vertex 20 12 0
      vertex 20 0 3
      vertex 20 0 0
    endloop
  endfacet
  facet normal 0 1 -0
    outer loop
      vertex 20 12 0
      vertex 12 12 3
      vertex 20 12 3
    endloop
  endfacet
  facet normal 0 1 0
    outer loop
      vertex 12 12 3
      vertex 20 12 0
      vertex 12 12 0
    endloop
  endfacet
  facet normal 0 0 -1
    outer loop
      vertex 12 0 0
      vertex 20 12 0
      vertex 20 0 0
    endloop
  endfacet
  facet normal -0 0 -1
    outer loop
      vertex 20 12 0
      vertex 12 0 0
      vertex 12 12 0
    endloop
  endfacet
  facet normal 0 -1 0
    outer loop
      vertex 12 0 0
      vertex 20 0 3
      vertex 12 0 3
    endloop
  endfacet
  facet normal 0 -1 -0
    outer loop
      vertex 20 0 3
      vertex 12 0 0
      vertex 20 0 0
    endloop
  endfacet
  facet normal -1 0 0
    outer loop
      vertex 0 20 0
      vertex 0 32 3
      vertex 0 32 0
    endloop
  endfacet
  facet normal -1 -0 0
    outer loop
      vertex 0 32 3
      vertex 0 20 0
      vertex 0 20 3
    endloop
  endfacet
  facet normal -0 0 1
    outer loop
      vertex 0 32 3
      vertex 8 20 3
      vertex 8 32 3
    endloop
  endfacet
  facet normal 0 0 1
    outer loop
      vertex 8 20 3
      vertex 0 32 3
      vertex 0 20 3
    endloop
  endfacet
  facet normal 1 -0 0
    outer loop
      vertex 8 20 3
      vertex 8 32 0
      vertex 8 32 3
    endloop
  endfacet
  facet normal 1 0 0
    outer loop
      vertex 8 32 0
      vertex 8 20 3
      vertex 8 20 0
    endloop
  endfacet
  facet normal 0 1 -0
    outer loop
      vertex 8 32 0
      vertex 0 32 3
      vertex 8 32 3
    endloop
  endfacet
  facet normal 0 1 0
    outer loop
      vertex 0 32 3
      vertex 8 32 0
      vertex 0 32 0
    endloop
  endfacet
  facet normal 0 0 -1
    outer loop
      vertex 0 20 0
      vertex 8 32 0
      vertex 8 20 0
    endloop
  endfacet
  facet normal -0 0 -1
    outer loop
      vertex 8 32 0
      vertex 0 20 0
      vertex 0 32 0
    endloop
  endfacet
  facet normal 0 -1 0
    outer loop
      vertex 0 20 0
      vertex 8 20 3
      vertex 0 20 3
    endloop
  endfacet
  facet normal 0 -1 -0
    outer loop
      vertex 8 20 3
      vertex 0 20 0
      vertex 8 20 0
    endloop
  endfacet
  facet normal -1 0 0
    outer loop
      vertex 12 20 0
      vertex 12 32 3
      vertex 12 32 0
    endloop
  endfacet
  facet normal -1 -0 0
    outer loop
      vertex 12 32 3
      vertex 12 20 0
      vertex 12 20 3
    endloop
  endfacet
  facet normal -0 0 1
    outer loop
      vertex 12 32 3
      vertex 20 20 3
      vertex 20 32 3
    endloop
  endfacet
  facet normal 0 0 1
    outer loop
      vertex 20 20 3
      vertex 12 32 3
      vertex 12 20 3
    endloop
  endfacet
  facet normal 1 -0 0
    outer loop
      vertex 20 20 3
      vertex 20 32 0
      vertex 20 32 3
    endloop
  endfacet
  facet normal 1 0 0
    outer loop
      vertex 20 32 0
      vertex 20 20 3
      vertex 20 20 0
    endloop
  endfacet
  facet normal 0 1 -0
    outer loop
      vertex 20 32 0
      vertex 12 32 3
      vertex 20 32 3
    endloop
  endfacet
  facet normal 0 1 0
    outer loop
      vertex 12 32 3
      vertex 20 32 0
      vertex 12 32 0
    endloop
  endfacet
  facet normal 0 0 -1
    outer loop
      vertex 12 20 0
      vertex 20 32 0
      vertex 20 20 0
    endloop
  endfacet
  facet normal -0 0 -1
    outer loop
      vertex 20 32 0
      vertex 12 20 0
      vertex 12 32 0
    endloop
  endfacet
  facet normal 0 -1 0
    outer loop
      vertex 12 20 0
      vertex 20 20 3
      vertex 12 20 3
    endloop
  endfacet
  facet normal 0 -1 -0
    outer loop
      vertex 20 20 3
      vertex 12 20 0
      vertex 20 20 0
    endloop
  endfacet
endsolid OpenSCAD_Model
