solid OpenSCAD_Model
  facet normal -0.176585 0.830743 0.527904
    outer loop
      vertex 0.417172 -1.28393 0
      vertex 0.239108 -2.27497 1.5
      vertex 0.308123 -2.2603 1.5
    endloop
  endfacet
  facet normal -0.176556 0.830746 0.52791
    outer loop
      vertex 0.239108 -2.27497 1.5
      vertex 0.417172 -1.28393 0
      vertex 0.141113 -1.3426 0
    endloop
  endfacet
  facet normal -0.345441 0.775877 0.527907
    outer loop
      vertex 0.771333 -2.14684 1.5
      vertex 1.14375 -1.98103 1.5
      vertex 0.674999 -1.16913 0
    endloop
  endfacet
  facet normal -0.631165 0.56828 0.52791
    outer loop
      vertex 0.903326 -1.00325 0
      vertex 1.85063 -1.34456 1.5
      vertex 1.09217 -0.793509 0
    endloop
  endfacet
  facet normal -0.631093 0.568381 0.527887
    outer loop
      vertex 1.85063 -1.34456 1.5
      vertex 0.903326 -1.00325 0
      vertex 1.80341 -1.39699 1.5
    endloop
  endfacet
  facet normal -0.84465 -0.0887718 0.527907
    outer loop
      vertex 2.2875 0 1.5
      vertex 2.24489 0.405428 1.5
      vertex 1.35 0 0
    endloop
  endfacet
  facet normal -0.844643 -0.0888338 0.527908
    outer loop
      vertex 1.3205 0.280681 0
      vertex 2.24489 0.405428 1.5
      vertex 2.23751 0.475598 1.5
    endloop
  endfacet
  facet normal -0.84465 -0.088774 0.527907
    outer loop
      vertex 2.24489 0.405428 1.5
      vertex 1.3205 0.280681 0
      vertex 1.35 0 0
    endloop
  endfacet
  facet normal -0.4992 0.687107 0.527906
    outer loop
      vertex 0.903326 -1.00325 0
      vertex 1.14375 -1.98103 1.5
      vertex 1.20083 -1.93956 1.5
    endloop
  endfacet
  facet normal -0.499189 0.687113 0.527908
    outer loop
      vertex 1.14375 -1.98103 1.5
      vertex 0.903326 -1.00325 0
      vertex 0.674999 -1.16913 0
    endloop
  endfacet
  facet normal -0.345462 0.77587 0.527904
    outer loop
      vertex 0.674999 -1.16913 0
      vertex 0.706876 -2.17554 1.5
      vertex 0.771333 -2.14684 1.5
    endloop
  endfacet
  facet normal -0.345463 0.775869 0.527903
    outer loop
      vertex 0.706876 -2.17554 1.5
      vertex 0.674999 -1.16913 0
      vertex 0.417172 -1.28393 0
    endloop
  endfacet
  facet normal 0 0.849301 0.527909
    outer loop
      vertex 0.141113 -1.3426 0
      vertex -0.239108 -2.27497 1.5
      vertex 0.239108 -2.27497 1.5
    endloop
  endfacet
  facet normal 0 0.849301 0.527909
    outer loop
      vertex -0.239108 -2.27497 1.5
      vertex 0.141113 -1.3426 0
      vertex -0.141113 -1.3426 0
    endloop
  endfacet
  facet normal 0.735517 0.424656 0.527903
    outer loop
      vertex -1.8859 -1.28345 1.5
      vertex -1.23329 -0.549094 0
      vertex -2.08973 -0.93041 1.5
    endloop
  endfacet
  facet normal 0.176585 -0.830743 0.527904
    outer loop
      vertex -0.417172 1.28393 0
      vertex -0.239108 2.27497 1.5
      vertex -0.308123 2.2603 1.5
    endloop
  endfacet
  facet normal 0.176556 -0.830746 0.52791
    outer loop
      vertex -0.239108 2.27497 1.5
      vertex -0.417172 1.28393 0
      vertex -0.141113 1.3426 0
    endloop
  endfacet
  facet normal 0.345441 0.775877 0.527907
    outer loop
      vertex -0.771333 -2.14684 1.5
      vertex -0.674999 -1.16913 0
      vertex -1.14375 -1.98103 1.5
    endloop
  endfacet
  facet normal -0.84465 0.088774 0.527907
    outer loop
      vertex 1.3205 -0.280681 0
      vertex 2.24489 -0.405428 1.5
      vertex 1.35 0 0
    endloop
  endfacet
  facet normal -0.844643 0.0888338 0.527908
    outer loop
      vertex 2.24489 -0.405428 1.5
      vertex 1.3205 -0.280681 0
      vertex 2.23751 -0.475598 1.5
    endloop
  endfacet
  facet normal -0.631163 0.568287 0.527905
    outer loop
      vertex 1.53064 -1.69994 1.5
      vertex 1.80341 -1.39699 1.5
      vertex 0.903326 -1.00325 0
    endloop
  endfacet
  facet normal -0.84465 0.0887718 0.527907
    outer loop
      vertex 2.24489 -0.405428 1.5
      vertex 2.2875 0 1.5
      vertex 1.35 0 0
    endloop
  endfacet
  facet normal 0.345462 -0.77587 0.527904
    outer loop
      vertex -0.674999 1.16913 0
      vertex -0.706876 2.17554 1.5
      vertex -0.771333 2.14684 1.5
    endloop
  endfacet
  facet normal 0.345463 -0.775869 0.527903
    outer loop
      vertex -0.706876 2.17554 1.5
      vertex -0.674999 1.16913 0
      vertex -0.417172 1.28393 0
    endloop
  endfacet
  facet normal 0.807733 0.26246 0.527903
    outer loop
      vertex -2.08973 -0.93041 1.5
      vertex -1.23329 -0.549094 0
      vertex -2.21571 -0.542701 1.5
    endloop
  endfacet
  facet normal -0.735517 0.424656 0.527903
    outer loop
      vertex 1.8859 -1.28345 1.5
      vertex 2.08973 -0.93041 1.5
      vertex 1.23329 -0.549094 0
    endloop
  endfacet
  facet normal 0.84465 -0.0887718 0.527907
    outer loop
      vertex -1.35 0 0
      vertex -2.24489 0.405428 1.5
      vertex -2.2875 0 1.5
    endloop
  endfacet
  facet normal 0.84465 0.088774 0.527907
    outer loop
      vertex -2.24489 -0.405428 1.5
      vertex -1.3205 -0.280681 0
      vertex -1.35 0 0
    endloop
  endfacet
  facet normal 0.844643 0.0888338 0.527908
    outer loop
      vertex -1.3205 -0.280681 0
      vertex -2.24489 -0.405428 1.5
      vertex -2.23751 -0.475598 1.5
    endloop
  endfacet
  facet normal -0.807738 0.262442 0.527905
    outer loop
      vertex 1.23329 -0.549094 0
      vertex 2.23751 -0.475598 1.5
      vertex 1.3205 -0.280681 0
    endloop
  endfacet
  facet normal -0.807743 0.262415 0.52791
    outer loop
      vertex 2.23751 -0.475598 1.5
      vertex 1.23329 -0.549094 0
      vertex 2.21571 -0.542701 1.5
    endloop
  endfacet
  facet normal 0.84465 0.0887718 0.527907
    outer loop
      vertex -2.24489 -0.405428 1.5
      vertex -1.35 0 0
      vertex -2.2875 0 1.5
    endloop
  endfacet
  facet normal -0.176585 0.830743 0.527904
    outer loop
      vertex 0.706876 -2.17554 1.5
      vertex 0.417172 -1.28393 0
      vertex 0.308123 -2.2603 1.5
    endloop
  endfacet
  facet normal 0.735581 -0.424545 0.527903
    outer loop
      vertex -1.8859 1.28345 1.5
      vertex -1.09217 0.793509 0
      vertex -1.85063 1.34456 1.5
    endloop
  endfacet
  facet normal 0.735509 -0.424667 0.527905
    outer loop
      vertex -1.09217 0.793509 0
      vertex -1.8859 1.28345 1.5
      vertex -1.23329 0.549094 0
    endloop
  endfacet
  facet normal -0.735509 0.424667 0.527905
    outer loop
      vertex 1.09217 -0.793509 0
      vertex 1.8859 -1.28345 1.5
      vertex 1.23329 -0.549094 0
    endloop
  endfacet
  facet normal -0.735581 0.424545 0.527903
    outer loop
      vertex 1.8859 -1.28345 1.5
      vertex 1.09217 -0.793509 0
      vertex 1.85063 -1.34456 1.5
    endloop
  endfacet
  facet normal -0.499207 0.687102 0.527904
    outer loop
      vertex 1.20083 -1.93956 1.5
      vertex 1.53064 -1.69994 1.5
      vertex 0.903326 -1.00325 0
    endloop
  endfacet
  facet normal 0.631163 0.568287 0.527905
    outer loop
      vertex -1.53064 -1.69994 1.5
      vertex -0.903326 -1.00325 0
      vertex -1.80341 -1.39699 1.5
    endloop
  endfacet
  facet normal -0.499207 -0.687102 0.527904
    outer loop
      vertex 1.53064 1.69994 1.5
      vertex 1.20083 1.93956 1.5
      vertex 0.903326 1.00325 0
    endloop
  endfacet
  facet normal -0.807733 0.26246 0.527903
    outer loop
      vertex 2.08973 -0.93041 1.5
      vertex 2.21571 -0.542701 1.5
      vertex 1.23329 -0.549094 0
    endloop
  endfacet
  facet normal 0.631163 -0.568287 0.527905
    outer loop
      vertex -0.903326 1.00325 0
      vertex -1.53064 1.69994 1.5
      vertex -1.80341 1.39699 1.5
    endloop
  endfacet
  facet normal 0.176585 -0.830743 0.527904
    outer loop
      vertex -0.417172 1.28393 0
      vertex -0.308123 2.2603 1.5
      vertex -0.706876 2.17554 1.5
    endloop
  endfacet
  facet normal 0.631093 -0.568381 0.527887
    outer loop
      vertex -1.85063 1.34456 1.5
      vertex -0.903326 1.00325 0
      vertex -1.80341 1.39699 1.5
    endloop
  endfacet
  facet normal 0.631165 -0.56828 0.52791
    outer loop
      vertex -0.903326 1.00325 0
      vertex -1.85063 1.34456 1.5
      vertex -1.09217 0.793509 0
    endloop
  endfacet
  facet normal -0.176585 -0.830743 0.527904
    outer loop
      vertex 0.417172 1.28393 0
      vertex 0.706876 2.17554 1.5
      vertex 0.308123 2.2603 1.5
    endloop
  endfacet
  facet normal 0.807733 -0.26246 0.527903
    outer loop
      vertex -1.23329 0.549094 0
      vertex -2.08973 0.93041 1.5
      vertex -2.21571 0.542701 1.5
    endloop
  endfacet
  facet normal 0.176584 0.830741 0.527908
    outer loop
      vertex -0.141113 -1.3426 0
      vertex -0.308123 -2.2603 1.5
      vertex -0.239108 -2.27497 1.5
    endloop
  endfacet
  facet normal 0.176556 0.830747 0.527909
    outer loop
      vertex -0.308123 -2.2603 1.5
      vertex -0.141113 -1.3426 0
      vertex -0.417172 -1.28393 0
    endloop
  endfacet
  facet normal 0.499207 0.687102 0.527904
    outer loop
      vertex -1.20083 -1.93956 1.5
      vertex -0.903326 -1.00325 0
      vertex -1.53064 -1.69994 1.5
    endloop
  endfacet
  facet normal 0.807743 -0.262415 0.52791
    outer loop
      vertex -2.23751 0.475598 1.5
      vertex -1.23329 0.549094 0
      vertex -2.21571 0.542701 1.5
    endloop
  endfacet
  facet normal 0.807738 -0.262442 0.527905
    outer loop
      vertex -1.23329 0.549094 0
      vertex -2.23751 0.475598 1.5
      vertex -1.3205 0.280681 0
    endloop
  endfacet
  facet normal 0.807743 0.262415 0.52791
    outer loop
      vertex -1.23329 -0.549094 0
      vertex -2.23751 -0.475598 1.5
      vertex -2.21571 -0.542701 1.5
    endloop
  endfacet
  facet normal 0.807738 0.262442 0.527905
    outer loop
      vertex -2.23751 -0.475598 1.5
      vertex -1.23329 -0.549094 0
      vertex -1.3205 -0.280681 0
    endloop
  endfacet
  facet normal 0.631165 0.56828 0.52791
    outer loop
      vertex -1.85063 -1.34456 1.5
      vertex -0.903326 -1.00325 0
      vertex -1.09217 -0.793509 0
    endloop
  endfacet
  facet normal 0.631093 0.568381 0.527887
    outer loop
      vertex -0.903326 -1.00325 0
      vertex -1.85063 -1.34456 1.5
      vertex -1.80341 -1.39699 1.5
    endloop
  endfacet
  facet normal 0.735509 0.424667 0.527905
    outer loop
      vertex -1.8859 -1.28345 1.5
      vertex -1.09217 -0.793509 0
      vertex -1.23329 -0.549094 0
    endloop
  endfacet
  facet normal 0.735581 0.424545 0.527903
    outer loop
      vertex -1.09217 -0.793509 0
      vertex -1.8859 -1.28345 1.5
      vertex -1.85063 -1.34456 1.5
    endloop
  endfacet
  facet normal 0.176585 0.830743 0.527904
    outer loop
      vertex -0.308123 -2.2603 1.5
      vertex -0.417172 -1.28393 0
      vertex -0.706876 -2.17554 1.5
    endloop
  endfacet
  facet normal 0.735517 -0.424656 0.527903
    outer loop
      vertex -1.23329 0.549094 0
      vertex -1.8859 1.28345 1.5
      vertex -2.08973 0.93041 1.5
    endloop
  endfacet
  facet normal -0.631163 -0.568287 0.527905
    outer loop
      vertex 1.80341 1.39699 1.5
      vertex 1.53064 1.69994 1.5
      vertex 0.903326 1.00325 0
    endloop
  endfacet
  facet normal 0.499207 -0.687102 0.527904
    outer loop
      vertex -0.903326 1.00325 0
      vertex -1.20083 1.93956 1.5
      vertex -1.53064 1.69994 1.5
    endloop
  endfacet
  facet normal 0.345463 0.775869 0.527903
    outer loop
      vertex -0.674999 -1.16913 0
      vertex -0.706876 -2.17554 1.5
      vertex -0.417172 -1.28393 0
    endloop
  endfacet
  facet normal 0.345462 0.77587 0.527904
    outer loop
      vertex -0.706876 -2.17554 1.5
      vertex -0.674999 -1.16913 0
      vertex -0.771333 -2.14684 1.5
    endloop
  endfacet
  facet normal 0.499189 0.687113 0.527908
    outer loop
      vertex -0.903326 -1.00325 0
      vertex -1.14375 -1.98103 1.5
      vertex -0.674999 -1.16913 0
    endloop
  endfacet
  facet normal 0.4992 0.687107 0.527906
    outer loop
      vertex -1.14375 -1.98103 1.5
      vertex -0.903326 -1.00325 0
      vertex -1.20083 -1.93956 1.5
    endloop
  endfacet
  facet normal -0.345441 -0.775877 0.527907
    outer loop
      vertex 1.14375 1.98103 1.5
      vertex 0.771333 2.14684 1.5
      vertex 0.674999 1.16913 0
    endloop
  endfacet
  facet normal 0.844643 -0.0888338 0.527908
    outer loop
      vertex -2.24489 0.405428 1.5
      vertex -1.3205 0.280681 0
      vertex -2.23751 0.475598 1.5
    endloop
  endfacet
  facet normal 0.84465 -0.088774 0.527907
    outer loop
      vertex -1.3205 0.280681 0
      vertex -2.24489 0.405428 1.5
      vertex -1.35 0 0
    endloop
  endfacet
  facet normal -0.807743 -0.262415 0.52791
    outer loop
      vertex 1.23329 0.549094 0
      vertex 2.23751 0.475598 1.5
      vertex 2.21571 0.542701 1.5
    endloop
  endfacet
  facet normal -0.807738 -0.262442 0.527905
    outer loop
      vertex 2.23751 0.475598 1.5
      vertex 1.23329 0.549094 0
      vertex 1.3205 0.280681 0
    endloop
  endfacet
  facet normal -0.345463 -0.775869 0.527903
    outer loop
      vertex 0.674999 1.16913 0
      vertex 0.706876 2.17554 1.5
      vertex 0.417172 1.28393 0
    endloop
  endfacet
  facet normal -0.345462 -0.77587 0.527904
    outer loop
      vertex 0.706876 2.17554 1.5
      vertex 0.674999 1.16913 0
      vertex 0.771333 2.14684 1.5
    endloop
  endfacet
  facet normal 0.4992 -0.687107 0.527906
    outer loop
      vertex -0.903326 1.00325 0
      vertex -1.14375 1.98103 1.5
      vertex -1.20083 1.93956 1.5
    endloop
  endfacet
  facet normal 0.499189 -0.687113 0.527908
    outer loop
      vertex -1.14375 1.98103 1.5
      vertex -0.903326 1.00325 0
      vertex -0.674999 1.16913 0
    endloop
  endfacet
  facet normal -0.499189 -0.687113 0.527908
    outer loop
      vertex 0.903326 1.00325 0
      vertex 1.14375 1.98103 1.5
      vertex 0.674999 1.16913 0
    endloop
  endfacet
  facet normal -0.4992 -0.687107 0.527906
    outer loop
      vertex 1.14375 1.98103 1.5
      vertex 0.903326 1.00325 0
      vertex 1.20083 1.93956 1.5
    endloop
  endfacet
  facet normal 0.345441 -0.775877 0.527907
    outer loop
      vertex -0.674999 1.16913 0
      vertex -0.771333 2.14684 1.5
      vertex -1.14375 1.98103 1.5
    endloop
  endfacet
  facet normal -0.735581 -0.424545 0.527903
    outer loop
      vertex 1.09217 0.793509 0
      vertex 1.8859 1.28345 1.5
      vertex 1.85063 1.34456 1.5
    endloop
  endfacet
  facet normal -0.735509 -0.424667 0.527905
    outer loop
      vertex 1.8859 1.28345 1.5
      vertex 1.09217 0.793509 0
      vertex 1.23329 0.549094 0
    endloop
  endfacet
  facet normal 0 -0.849301 0.527909
    outer loop
      vertex -0.141113 1.3426 0
      vertex 0.239108 2.27497 1.5
      vertex -0.239108 2.27497 1.5
    endloop
  endfacet
  facet normal 0 -0.849301 0.527909
    outer loop
      vertex 0.239108 2.27497 1.5
      vertex -0.141113 1.3426 0
      vertex 0.141113 1.3426 0
    endloop
  endfacet
  facet normal -0.176584 -0.830741 0.527908
    outer loop
      vertex 0.141113 1.3426 0
      vertex 0.308123 2.2603 1.5
      vertex 0.239108 2.27497 1.5
    endloop
  endfacet
  facet normal -0.176556 -0.830747 0.527909
    outer loop
      vertex 0.308123 2.2603 1.5
      vertex 0.141113 1.3426 0
      vertex 0.417172 1.28393 0
    endloop
  endfacet
  facet normal -0.807733 -0.26246 0.527903
    outer loop
      vertex 2.21571 0.542701 1.5
      vertex 2.08973 0.93041 1.5
      vertex 1.23329 0.549094 0
    endloop
  endfacet
  facet normal -0.735517 -0.424656 0.527903
    outer loop
      vertex 2.08973 0.93041 1.5
      vertex 1.8859 1.28345 1.5
      vertex 1.23329 0.549094 0
    endloop
  endfacet
  facet normal -0.631093 -0.568381 0.527887
    outer loop
      vertex 0.903326 1.00325 0
      vertex 1.85063 1.34456 1.5
      vertex 1.80341 1.39699 1.5
    endloop
  endfacet
  facet normal -0.631165 -0.56828 0.52791
    outer loop
      vertex 1.85063 1.34456 1.5
      vertex 0.903326 1.00325 0
      vertex 1.09217 0.793509 0
    endloop
  endfacet
  facet normal -0.866015 -0.500018 0
    outer loop
      vertex 1.23329 0.549094 -1.5
      vertex 1.09217 0.793509 0
      vertex 1.09217 0.793509 -1.5
    endloop
  endfacet
  facet normal -0.866015 -0.500018 0
    outer loop
      vertex 1.09217 0.793509 0
      vertex 1.23329 0.549094 -1.5
      vertex 1.23329 0.549094 0
    endloop
  endfacet
  facet normal -0.951059 -0.309008 0
    outer loop
      vertex 1.3205 0.280681 -1.5
      vertex 1.23329 0.549094 0
      vertex 1.23329 0.549094 -1.5
    endloop
  endfacet
  facet normal -0.951059 -0.309008 0
    outer loop
      vertex 1.23329 0.549094 0
      vertex 1.3205 0.280681 -1.5
      vertex 1.3205 0.280681 0
    endloop
  endfacet
  facet normal -0.994522 -0.104526 0
    outer loop
      vertex 1.35 0 -1.5
      vertex 1.3205 0.280681 0
      vertex 1.3205 0.280681 -1.5
    endloop
  endfacet
  facet normal -0.994522 -0.104526 0
    outer loop
      vertex 1.3205 0.280681 0
      vertex 1.35 0 -1.5
      vertex 1.35 0 0
    endloop
  endfacet
  facet normal -0.994522 0.104526 0
    outer loop
      vertex 1.3205 -0.280681 -1.5
      vertex 1.35 0 0
      vertex 1.35 0 -1.5
    endloop
  endfacet
  facet normal -0.994522 0.104526 0
    outer loop
      vertex 1.35 0 0
      vertex 1.3205 -0.280681 -1.5
      vertex 1.3205 -0.280681 0
    endloop
  endfacet
  facet normal 0.207884 0.978153 -0
    outer loop
      vertex -0.141113 -1.3426 -1.5
      vertex -0.417172 -1.28393 0
      vertex -0.141113 -1.3426 0
    endloop
  endfacet
  facet normal 0.207884 0.978153 0
    outer loop
      vertex -0.417172 -1.28393 0
      vertex -0.141113 -1.3426 -1.5
      vertex -0.417172 -1.28393 -1.5
    endloop
  endfacet
  facet normal -0.951059 0.309008 0
    outer loop
      vertex 1.23329 -0.549094 -1.5
      vertex 1.3205 -0.280681 0
      vertex 1.3205 -0.280681 -1.5
    endloop
  endfacet
  facet normal -0.951059 0.309008 0
    outer loop
      vertex 1.3205 -0.280681 0
      vertex 1.23329 -0.549094 -1.5
      vertex 1.23329 -0.549094 0
    endloop
  endfacet
  facet normal 0.866015 0.500018 0
    outer loop
      vertex -1.09217 -0.793509 0
      vertex -1.23329 -0.549094 -1.5
      vertex -1.23329 -0.549094 0
    endloop
  endfacet
  facet normal 0.866015 0.500018 0
    outer loop
      vertex -1.23329 -0.549094 -1.5
      vertex -1.09217 -0.793509 0
      vertex -1.09217 -0.793509 -1.5
    endloop
  endfacet
  facet normal 0.587764 0.809033 -0
    outer loop
      vertex -0.674999 -1.16913 -1.5
      vertex -0.903326 -1.00325 0
      vertex -0.674999 -1.16913 0
    endloop
  endfacet
  facet normal 0.587764 0.809033 0
    outer loop
      vertex -0.903326 -1.00325 0
      vertex -0.674999 -1.16913 -1.5
      vertex -0.903326 -1.00325 -1.5
    endloop
  endfacet
  facet normal -0.40676 -0.913535 0
    outer loop
      vertex 0.417172 1.28393 -1.5
      vertex 0.674999 1.16913 0
      vertex 0.417172 1.28393 0
    endloop
  endfacet
  facet normal -0.40676 -0.913535 -0
    outer loop
      vertex 0.674999 1.16913 0
      vertex 0.417172 1.28393 -1.5
      vertex 0.674999 1.16913 -1.5
    endloop
  endfacet
  facet normal -0.587764 0.809033 0
    outer loop
      vertex 0.903326 -1.00325 -1.5
      vertex 0.674999 -1.16913 0
      vertex 0.903326 -1.00325 0
    endloop
  endfacet
  facet normal -0.587764 0.809033 0
    outer loop
      vertex 0.674999 -1.16913 0
      vertex 0.903326 -1.00325 -1.5
      vertex 0.674999 -1.16913 -1.5
    endloop
  endfacet
  facet normal 0.587764 -0.809033 0
    outer loop
      vertex -0.903326 1.00325 -1.5
      vertex -0.674999 1.16913 0
      vertex -0.903326 1.00325 0
    endloop
  endfacet
  facet normal 0.587764 -0.809033 0
    outer loop
      vertex -0.674999 1.16913 0
      vertex -0.903326 1.00325 -1.5
      vertex -0.674999 1.16913 -1.5
    endloop
  endfacet
  facet normal 0.951059 0.309008 0
    outer loop
      vertex -1.23329 -0.549094 0
      vertex -1.3205 -0.280681 -1.5
      vertex -1.3205 -0.280681 0
    endloop
  endfacet
  facet normal 0.951059 0.309008 0
    outer loop
      vertex -1.3205 -0.280681 -1.5
      vertex -1.23329 -0.549094 0
      vertex -1.23329 -0.549094 -1.5
    endloop
  endfacet
  facet normal -0.866015 0.500018 0
    outer loop
      vertex 1.09217 -0.793509 -1.5
      vertex 1.23329 -0.549094 0
      vertex 1.23329 -0.549094 -1.5
    endloop
  endfacet
  facet normal -0.866015 0.500018 0
    outer loop
      vertex 1.23329 -0.549094 0
      vertex 1.09217 -0.793509 -1.5
      vertex 1.09217 -0.793509 0
    endloop
  endfacet
  facet normal 0 -1 0
    outer loop
      vertex -0.141113 1.3426 -1.5
      vertex 0.141113 1.3426 0
      vertex -0.141113 1.3426 0
    endloop
  endfacet
  facet normal 0 -1 -0
    outer loop
      vertex 0.141113 1.3426 0
      vertex -0.141113 1.3426 -1.5
      vertex 0.141113 1.3426 -1.5
    endloop
  endfacet
  facet normal 0.951059 -0.309008 0
    outer loop
      vertex -1.3205 0.280681 0
      vertex -1.23329 0.549094 -1.5
      vertex -1.23329 0.549094 0
    endloop
  endfacet
  facet normal 0.951059 -0.309008 0
    outer loop
      vertex -1.23329 0.549094 -1.5
      vertex -1.3205 0.280681 0
      vertex -1.3205 0.280681 -1.5
    endloop
  endfacet
  facet normal 0 1 -0
    outer loop
      vertex 0.141113 -1.3426 -1.5
      vertex -0.141113 -1.3426 0
      vertex 0.141113 -1.3426 0
    endloop
  endfacet
  facet normal 0 1 0
    outer loop
      vertex -0.141113 -1.3426 0
      vertex 0.141113 -1.3426 -1.5
      vertex -0.141113 -1.3426 -1.5
    endloop
  endfacet
  facet normal 0.866015 -0.500018 0
    outer loop
      vertex -1.23329 0.549094 0
      vertex -1.09217 0.793509 -1.5
      vertex -1.09217 0.793509 0
    endloop
  endfacet
  facet normal 0.866015 -0.500018 0
    outer loop
      vertex -1.09217 0.793509 -1.5
      vertex -1.23329 0.549094 0
      vertex -1.23329 0.549094 -1.5
    endloop
  endfacet
  facet normal 0.207884 -0.978153 0
    outer loop
      vertex -0.417172 1.28393 -1.5
      vertex -0.141113 1.3426 0
      vertex -0.417172 1.28393 0
    endloop
  endfacet
  facet normal 0.207884 -0.978153 0
    outer loop
      vertex -0.141113 1.3426 0
      vertex -0.417172 1.28393 -1.5
      vertex -0.141113 1.3426 -1.5
    endloop
  endfacet
  facet normal -0.207884 0.978153 0
    outer loop
      vertex 0.417172 -1.28393 -1.5
      vertex 0.141113 -1.3426 0
      vertex 0.417172 -1.28393 0
    endloop
  endfacet
  facet normal -0.207884 0.978153 0
    outer loop
      vertex 0.141113 -1.3426 0
      vertex 0.417172 -1.28393 -1.5
      vertex 0.141113 -1.3426 -1.5
    endloop
  endfacet
  facet normal -0.743158 0.669116 0
    outer loop
      vertex 0.903326 -1.00325 -1.5
      vertex 1.09217 -0.793509 0
      vertex 1.09217 -0.793509 -1.5
    endloop
  endfacet
  facet normal -0.743158 0.669116 0
    outer loop
      vertex 1.09217 -0.793509 0
      vertex 0.903326 -1.00325 -1.5
      vertex 0.903326 -1.00325 0
    endloop
  endfacet
  facet normal 0.40676 -0.913535 0
    outer loop
      vertex -0.674999 1.16913 -1.5
      vertex -0.417172 1.28393 0
      vertex -0.674999 1.16913 0
    endloop
  endfacet
  facet normal 0.40676 -0.913535 0
    outer loop
      vertex -0.417172 1.28393 0
      vertex -0.674999 1.16913 -1.5
      vertex -0.417172 1.28393 -1.5
    endloop
  endfacet
  facet normal -0.40676 0.913535 0
    outer loop
      vertex 0.674999 -1.16913 -1.5
      vertex 0.417172 -1.28393 0
      vertex 0.674999 -1.16913 0
    endloop
  endfacet
  facet normal -0.40676 0.913535 0
    outer loop
      vertex 0.417172 -1.28393 0
      vertex 0.674999 -1.16913 -1.5
      vertex 0.417172 -1.28393 -1.5
    endloop
  endfacet
  facet normal 0.40676 0.913535 -0
    outer loop
      vertex -0.417172 -1.28393 -1.5
      vertex -0.674999 -1.16913 0
      vertex -0.417172 -1.28393 0
    endloop
  endfacet
  facet normal 0.40676 0.913535 0
    outer loop
      vertex -0.674999 -1.16913 0
      vertex -0.417172 -1.28393 -1.5
      vertex -0.674999 -1.16913 -1.5
    endloop
  endfacet
  facet normal -0.587764 -0.809033 0
    outer loop
      vertex 0.674999 1.16913 -1.5
      vertex 0.903326 1.00325 0
      vertex 0.674999 1.16913 0
    endloop
  endfacet
  facet normal -0.587764 -0.809033 -0
    outer loop
      vertex 0.903326 1.00325 0
      vertex 0.674999 1.16913 -1.5
      vertex 0.903326 1.00325 -1.5
    endloop
  endfacet
  facet normal -0.743158 -0.669116 0
    outer loop
      vertex 1.09217 0.793509 -1.5
      vertex 0.903326 1.00325 0
      vertex 0.903326 1.00325 -1.5
    endloop
  endfacet
  facet normal -0.743158 -0.669116 0
    outer loop
      vertex 0.903326 1.00325 0
      vertex 1.09217 0.793509 -1.5
      vertex 1.09217 0.793509 0
    endloop
  endfacet
  facet normal -0.207884 -0.978153 0
    outer loop
      vertex 0.141113 1.3426 -1.5
      vertex 0.417172 1.28393 0
      vertex 0.141113 1.3426 0
    endloop
  endfacet
  facet normal -0.207884 -0.978153 -0
    outer loop
      vertex 0.417172 1.28393 0
      vertex 0.141113 1.3426 -1.5
      vertex 0.417172 1.28393 -1.5
    endloop
  endfacet
  facet normal 0.994522 -0.104526 0
    outer loop
      vertex -1.35 0 0
      vertex -1.3205 0.280681 -1.5
      vertex -1.3205 0.280681 0
    endloop
  endfacet
  facet normal 0.994522 -0.104526 0
    outer loop
      vertex -1.3205 0.280681 -1.5
      vertex -1.35 0 0
      vertex -1.35 0 -1.5
    endloop
  endfacet
  facet normal 0.994522 0.104526 0
    outer loop
      vertex -1.3205 -0.280681 0
      vertex -1.35 0 -1.5
      vertex -1.35 0 0
    endloop
  endfacet
  facet normal 0.994522 0.104526 0
    outer loop
      vertex -1.35 0 -1.5
      vertex -1.3205 -0.280681 0
      vertex -1.3205 -0.280681 -1.5
    endloop
  endfacet
  facet normal 0.743158 0.669116 0
    outer loop
      vertex -0.903326 -1.00325 0
      vertex -1.09217 -0.793509 -1.5
      vertex -1.09217 -0.793509 0
    endloop
  endfacet
  facet normal 0.743158 0.669116 0
    outer loop
      vertex -1.09217 -0.793509 -1.5
      vertex -0.903326 -1.00325 0
      vertex -0.903326 -1.00325 -1.5
    endloop
  endfacet
  facet normal 0.743158 -0.669116 0
    outer loop
      vertex -1.09217 0.793509 0
      vertex -0.903326 1.00325 -1.5
      vertex -0.903326 1.00325 0
    endloop
  endfacet
  facet normal 0.743158 -0.669116 0
    outer loop
      vertex -0.903326 1.00325 -1.5
      vertex -1.09217 0.793509 0
      vertex -1.09217 0.793509 -1.5
    endloop
  endfacet
  facet normal 0.951054 0.309026 0
    outer loop
      vertex 2.44537 0.519779 1.5
      vertex 2.28386 1.01684 -1.5
      vertex 2.28386 1.01684 1.5
    endloop
  endfacet
  facet normal 0.951054 0.309026 0
    outer loop
      vertex 2.28386 1.01684 -1.5
      vertex 2.44537 0.519779 1.5
      vertex 2.44537 0.519779 -1.5
    endloop
  endfacet
  facet normal 0.994522 0.104527 0
    outer loop
      vertex 2.5 0 1.5
      vertex 2.44537 0.519779 -1.5
      vertex 2.44537 0.519779 1.5
    endloop
  endfacet
  facet normal 0.994522 0.104527 0
    outer loop
      vertex 2.44537 0.519779 -1.5
      vertex 2.5 0 1.5
      vertex 2.5 0 -1.5
    endloop
  endfacet
  facet normal 0.866026 0.5 0
    outer loop
      vertex 2.28386 1.01684 1.5
      vertex 2.02254 1.46946 -1.5
      vertex 2.02254 1.46946 1.5
    endloop
  endfacet
  facet normal 0.866026 0.5 0
    outer loop
      vertex 2.02254 1.46946 -1.5
      vertex 2.28386 1.01684 1.5
      vertex 2.28386 1.01684 -1.5
    endloop
  endfacet
  facet normal -0.40674 0.913544 0
    outer loop
      vertex -0.772542 2.37764 -1.5
      vertex -1.25 2.16506 1.5
      vertex -0.772542 2.37764 1.5
    endloop
  endfacet
  facet normal -0.40674 0.913544 0
    outer loop
      vertex -1.25 2.16506 1.5
      vertex -0.772542 2.37764 -1.5
      vertex -1.25 2.16506 -1.5
    endloop
  endfacet
  facet normal 0.40674 0.913544 -0
    outer loop
      vertex 1.25 2.16506 -1.5
      vertex 0.772542 2.37764 1.5
      vertex 1.25 2.16506 1.5
    endloop
  endfacet
  facet normal 0.40674 0.913544 0
    outer loop
      vertex 0.772542 2.37764 1.5
      vertex 1.25 2.16506 -1.5
      vertex 0.772542 2.37764 -1.5
    endloop
  endfacet
  facet normal 0.994522 -0.104527 0
    outer loop
      vertex 2.44537 -0.519779 1.5
      vertex 2.5 0 -1.5
      vertex 2.5 0 1.5
    endloop
  endfacet
  facet normal 0.994522 -0.104527 0
    outer loop
      vertex 2.5 0 -1.5
      vertex 2.44537 -0.519779 1.5
      vertex 2.44537 -0.519779 -1.5
    endloop
  endfacet
  facet normal -0.743151 0.669123 0
    outer loop
      vertex -2.02254 1.46946 -1.5
      vertex -1.67283 1.85786 1.5
      vertex -1.67283 1.85786 -1.5
    endloop
  endfacet
  facet normal -0.743151 0.669123 0
    outer loop
      vertex -1.67283 1.85786 1.5
      vertex -2.02254 1.46946 -1.5
      vertex -2.02254 1.46946 1.5
    endloop
  endfacet
  facet normal -0.58778 0.809021 0
    outer loop
      vertex -1.25 2.16506 -1.5
      vertex -1.67283 1.85786 1.5
      vertex -1.25 2.16506 1.5
    endloop
  endfacet
  facet normal -0.58778 0.809021 0
    outer loop
      vertex -1.67283 1.85786 1.5
      vertex -1.25 2.16506 -1.5
      vertex -1.67283 1.85786 -1.5
    endloop
  endfacet
  facet normal 0.743151 0.669123 0
    outer loop
      vertex 2.02254 1.46946 1.5
      vertex 1.67283 1.85786 -1.5
      vertex 1.67283 1.85786 1.5
    endloop
  endfacet
  facet normal 0.743151 0.669123 0
    outer loop
      vertex 1.67283 1.85786 -1.5
      vertex 2.02254 1.46946 1.5
      vertex 2.02254 1.46946 -1.5
    endloop
  endfacet
  facet normal 0.951054 -0.309026 0
    outer loop
      vertex 2.28386 -1.01684 1.5
      vertex 2.44537 -0.519779 -1.5
      vertex 2.44537 -0.519779 1.5
    endloop
  endfacet
  facet normal 0.951054 -0.309026 0
    outer loop
      vertex 2.44537 -0.519779 -1.5
      vertex 2.28386 -1.01684 1.5
      vertex 2.28386 -1.01684 -1.5
    endloop
  endfacet
  facet normal -0.40674 -0.913544 0
    outer loop
      vertex -1.25 -2.16506 -1.5
      vertex -0.772542 -2.37764 1.5
      vertex -1.25 -2.16506 1.5
    endloop
  endfacet
  facet normal -0.40674 -0.913544 -0
    outer loop
      vertex -0.772542 -2.37764 1.5
      vertex -1.25 -2.16506 -1.5
      vertex -0.772542 -2.37764 -1.5
    endloop
  endfacet
  facet normal -0.866026 -0.5 0
    outer loop
      vertex -2.02254 -1.46946 -1.5
      vertex -2.28386 -1.01684 1.5
      vertex -2.28386 -1.01684 -1.5
    endloop
  endfacet
  facet normal -0.866026 -0.5 0
    outer loop
      vertex -2.28386 -1.01684 1.5
      vertex -2.02254 -1.46946 -1.5
      vertex -2.02254 -1.46946 1.5
    endloop
  endfacet
  facet normal -0.951054 0.309026 0
    outer loop
      vertex -2.44537 0.519779 -1.5
      vertex -2.28386 1.01684 1.5
      vertex -2.28386 1.01684 -1.5
    endloop
  endfacet
  facet normal -0.951054 0.309026 0
    outer loop
      vertex -2.28386 1.01684 1.5
      vertex -2.44537 0.519779 -1.5
      vertex -2.44537 0.519779 1.5
    endloop
  endfacet
  facet normal -0.207906 -0.978149 0
    outer loop
      vertex -0.772542 -2.37764 -1.5
      vertex -0.261321 -2.4863 1.5
      vertex -0.772542 -2.37764 1.5
    endloop
  endfacet
  facet normal -0.207906 -0.978149 -0
    outer loop
      vertex -0.261321 -2.4863 1.5
      vertex -0.772542 -2.37764 -1.5
      vertex -0.261321 -2.4863 -1.5
    endloop
  endfacet
  facet normal -0.951054 -0.309026 0
    outer loop
      vertex -2.28386 -1.01684 -1.5
      vertex -2.44537 -0.519779 1.5
      vertex -2.44537 -0.519779 -1.5
    endloop
  endfacet
  facet normal -0.951054 -0.309026 0
    outer loop
      vertex -2.44537 -0.519779 1.5
      vertex -2.28386 -1.01684 -1.5
      vertex -2.28386 -1.01684 1.5
    endloop
  endfacet
  facet normal -0.994522 0.104527 0
    outer loop
      vertex -2.5 0 -1.5
      vertex -2.44537 0.519779 1.5
      vertex -2.44537 0.519779 -1.5
    endloop
  endfacet
  facet normal -0.994522 0.104527 0
    outer loop
      vertex -2.44537 0.519779 1.5
      vertex -2.5 0 -1.5
      vertex -2.5 0 1.5
    endloop
  endfacet
  facet normal 0 1 -0
    outer loop
      vertex 0.261321 2.4863 -1.5
      vertex -0.261321 2.4863 1.5
      vertex 0.261321 2.4863 1.5
    endloop
  endfacet
  facet normal 0 1 0
    outer loop
      vertex -0.261321 2.4863 1.5
      vertex 0.261321 2.4863 -1.5
      vertex -0.261321 2.4863 -1.5
    endloop
  endfacet
  facet normal 0.743151 -0.669123 0
    outer loop
      vertex 1.67283 -1.85786 1.5
      vertex 2.02254 -1.46946 -1.5
      vertex 2.02254 -1.46946 1.5
    endloop
  endfacet
  facet normal 0.743151 -0.669123 0
    outer loop
      vertex 2.02254 -1.46946 -1.5
      vertex 1.67283 -1.85786 1.5
      vertex 1.67283 -1.85786 -1.5
    endloop
  endfacet
  facet normal 0.207906 -0.978149 0
    outer loop
      vertex 0.261321 -2.4863 -1.5
      vertex 0.772542 -2.37764 1.5
      vertex 0.261321 -2.4863 1.5
    endloop
  endfacet
  facet normal 0.207906 -0.978149 0
    outer loop
      vertex 0.772542 -2.37764 1.5
      vertex 0.261321 -2.4863 -1.5
      vertex 0.772542 -2.37764 -1.5
    endloop
  endfacet
  facet normal 0.866026 -0.5 0
    outer loop
      vertex 2.02254 -1.46946 1.5
      vertex 2.28386 -1.01684 -1.5
      vertex 2.28386 -1.01684 1.5
    endloop
  endfacet
  facet normal 0.866026 -0.5 0
    outer loop
      vertex 2.28386 -1.01684 -1.5
      vertex 2.02254 -1.46946 1.5
      vertex 2.02254 -1.46946 -1.5
    endloop
  endfacet
  facet normal 0.207906 0.978149 -0
    outer loop
      vertex 0.772542 2.37764 -1.5
      vertex 0.261321 2.4863 1.5
      vertex 0.772542 2.37764 1.5
    endloop
  endfacet
  facet normal 0.207906 0.978149 0
    outer loop
      vertex 0.261321 2.4863 1.5
      vertex 0.772542 2.37764 -1.5
      vertex 0.261321 2.4863 -1.5
    endloop
  endfacet
  facet normal 0.58778 -0.809021 0
    outer loop
      vertex 1.25 -2.16506 -1.5
      vertex 1.67283 -1.85786 1.5
      vertex 1.25 -2.16506 1.5
    endloop
  endfacet
  facet normal 0.58778 -0.809021 0
    outer loop
      vertex 1.67283 -1.85786 1.5
      vertex 1.25 -2.16506 -1.5
      vertex 1.67283 -1.85786 -1.5
    endloop
  endfacet
  facet normal 0.58778 0.809021 -0
    outer loop
      vertex 1.67283 1.85786 -1.5
      vertex 1.25 2.16506 1.5
      vertex 1.67283 1.85786 1.5
    endloop
  endfacet
  facet normal 0.58778 0.809021 0
    outer loop
      vertex 1.25 2.16506 1.5
      vertex 1.67283 1.85786 -1.5
      vertex 1.25 2.16506 -1.5
    endloop
  endfacet
  facet normal -0.207906 0.978149 0
    outer loop
      vertex -0.261321 2.4863 -1.5
      vertex -0.772542 2.37764 1.5
      vertex -0.261321 2.4863 1.5
    endloop
  endfacet
  facet normal -0.207906 0.978149 0
    outer loop
      vertex -0.772542 2.37764 1.5
      vertex -0.261321 2.4863 -1.5
      vertex -0.772542 2.37764 -1.5
    endloop
  endfacet
  facet normal 0 -1 0
    outer loop
      vertex -0.261321 -2.4863 -1.5
      vertex 0.261321 -2.4863 1.5
      vertex -0.261321 -2.4863 1.5
    endloop
  endfacet
  facet normal 0 -1 -0
    outer loop
      vertex 0.261321 -2.4863 1.5
      vertex -0.261321 -2.4863 -1.5
      vertex 0.261321 -2.4863 -1.5
    endloop
  endfacet
  facet normal -0.994522 -0.104527 0
    outer loop
      vertex -2.44537 -0.519779 -1.5
      vertex -2.5 0 1.5
      vertex -2.5 0 -1.5
    endloop
  endfacet
  facet normal -0.994522 -0.104527 0
    outer loop
      vertex -2.5 0 1.5
      vertex -2.44537 -0.519779 -1.5
      vertex -2.44537 -0.519779 1.5
    endloop
  endfacet
  facet normal 0 0 -1
    outer loop
      vertex 1.35 0 -1.5
      vertex 2.5 0 -1.5
      vertex 2.44537 -0.519779 -1.5
    endloop
  endfacet
  facet normal 0 0 -1
    outer loop
      vertex 1.3205 -0.280681 -1.5
      vertex 2.44537 -0.519779 -1.5
      vertex 2.28386 -1.01684 -1.5
    endloop
  endfacet
  facet normal 0 0 -1
    outer loop
      vertex 2.5 0 -1.5
      vertex 1.35 0 -1.5
      vertex 2.44537 0.519779 -1.5
    endloop
  endfacet
  facet normal 0 0 -1
    outer loop
      vertex 1.23329 -0.549094 -1.5
      vertex 2.28386 -1.01684 -1.5
      vertex 2.02254 -1.46946 -1.5
    endloop
  endfacet
  facet normal 0 0 -1
    outer loop
      vertex 1.3205 0.280681 -1.5
      vertex 2.44537 0.519779 -1.5
      vertex 1.35 0 -1.5
    endloop
  endfacet
  facet normal 0 0 -1
    outer loop
      vertex 1.09217 -0.793509 -1.5
      vertex 2.02254 -1.46946 -1.5
      vertex 1.67283 -1.85786 -1.5
    endloop
  endfacet
  facet normal -0 0 -1
    outer loop
      vertex 2.44537 0.519779 -1.5
      vertex 1.3205 0.280681 -1.5
      vertex 2.28386 1.01684 -1.5
    endloop
  endfacet
  facet normal 0 0 -1
    outer loop
      vertex 1.23329 0.549094 -1.5
      vertex 2.28386 1.01684 -1.5
      vertex 1.3205 0.280681 -1.5
    endloop
  endfacet
  facet normal 0 0 -1
    outer loop
      vertex 2.44537 -0.519779 -1.5
      vertex 1.3205 -0.280681 -1.5
      vertex 1.35 0 -1.5
    endloop
  endfacet
  facet normal 0 0 -1
    outer loop
      vertex 0.903326 -1.00325 -1.5
      vertex 1.67283 -1.85786 -1.5
      vertex 1.25 -2.16506 -1.5
    endloop
  endfacet
  facet normal 0 0 -1
    outer loop
      vertex 2.28386 -1.01684 -1.5
      vertex 1.23329 -0.549094 -1.5
      vertex 1.3205 -0.280681 -1.5
    endloop
  endfacet
  facet normal 0 0 -1
    outer loop
      vertex 2.02254 -1.46946 -1.5
      vertex 1.09217 -0.793509 -1.5
      vertex 1.23329 -0.549094 -1.5
    endloop
  endfacet
  facet normal 0 0 -1
    outer loop
      vertex 1.67283 -1.85786 -1.5
      vertex 0.903326 -1.00325 -1.5
      vertex 1.09217 -0.793509 -1.5
    endloop
  endfacet
  facet normal 0 0 -1
    outer loop
      vertex 0.674999 -1.16913 -1.5
      vertex 1.25 -2.16506 -1.5
      vertex 0.772542 -2.37764 -1.5
    endloop
  endfacet
  facet normal 0 0 -1
    outer loop
      vertex 1.25 -2.16506 -1.5
      vertex 0.674999 -1.16913 -1.5
      vertex 0.903326 -1.00325 -1.5
    endloop
  endfacet
  facet normal 0 0 -1
    outer loop
      vertex 0.772542 -2.37764 -1.5
      vertex 0.417172 -1.28393 -1.5
      vertex 0.674999 -1.16913 -1.5
    endloop
  endfacet
  facet normal 0 0 -1
    outer loop
      vertex 0.261321 -2.4863 -1.5
      vertex 0.417172 -1.28393 -1.5
      vertex 0.772542 -2.37764 -1.5
    endloop
  endfacet
  facet normal 0 0 -1
    outer loop
      vertex 0.261321 -2.4863 -1.5
      vertex 0.141113 -1.3426 -1.5
      vertex 0.417172 -1.28393 -1.5
    endloop
  endfacet
  facet normal 0 0 -1
    outer loop
      vertex 0.261321 -2.4863 -1.5
      vertex -0.141113 -1.3426 -1.5
      vertex 0.141113 -1.3426 -1.5
    endloop
  endfacet
  facet normal 0 0 -1
    outer loop
      vertex -0.261321 -2.4863 -1.5
      vertex -0.141113 -1.3426 -1.5
      vertex 0.261321 -2.4863 -1.5
    endloop
  endfacet
  facet normal 0 0 -1
    outer loop
      vertex -0.261321 -2.4863 -1.5
      vertex -0.417172 -1.28393 -1.5
      vertex -0.141113 -1.3426 -1.5
    endloop
  endfacet
  facet normal 0 0 -1
    outer loop
      vertex -0.772542 -2.37764 -1.5
      vertex -0.417172 -1.28393 -1.5
      vertex -0.261321 -2.4863 -1.5
    endloop
  endfacet
  facet normal -0 0 -1
    outer loop
      vertex -0.417172 -1.28393 -1.5
      vertex -0.772542 -2.37764 -1.5
      vertex -0.674999 -1.16913 -1.5
    endloop
  endfacet
  facet normal 0 0 -1
    outer loop
      vertex -1.25 -2.16506 -1.5
      vertex -0.674999 -1.16913 -1.5
      vertex -0.772542 -2.37764 -1.5
    endloop
  endfacet
  facet normal -0 0 -1
    outer loop
      vertex -0.674999 -1.16913 -1.5
      vertex -1.25 -2.16506 -1.5
      vertex -0.903326 -1.00325 -1.5
    endloop
  endfacet
  facet normal 0 0 -1
    outer loop
      vertex -1.67283 -1.85786 -1.5
      vertex -0.903326 -1.00325 -1.5
      vertex -1.25 -2.16506 -1.5
    endloop
  endfacet
  facet normal -0 0 -1
    outer loop
      vertex -0.903326 -1.00325 -1.5
      vertex -1.67283 -1.85786 -1.5
      vertex -1.09217 -0.793509 -1.5
    endloop
  endfacet
  facet normal 0 0 -1
    outer loop
      vertex -2.02254 -1.46946 -1.5
      vertex -1.09217 -0.793509 -1.5
      vertex -1.67283 -1.85786 -1.5
    endloop
  endfacet
  facet normal -0 0 -1
    outer loop
      vertex -1.09217 -0.793509 -1.5
      vertex -2.02254 -1.46946 -1.5
      vertex -1.23329 -0.549094 -1.5
    endloop
  endfacet
  facet normal 0 0 -1
    outer loop
      vertex -2.28386 -1.01684 -1.5
      vertex -1.23329 -0.549094 -1.5
      vertex -2.02254 -1.46946 -1.5
    endloop
  endfacet
  facet normal -0 0 -1
    outer loop
      vertex 2.28386 1.01684 -1.5
      vertex 1.23329 0.549094 -1.5
      vertex 2.02254 1.46946 -1.5
    endloop
  endfacet
  facet normal 0 0 -1
    outer loop
      vertex 1.09217 0.793509 -1.5
      vertex 2.02254 1.46946 -1.5
      vertex 1.23329 0.549094 -1.5
    endloop
  endfacet
  facet normal -0 0 -1
    outer loop
      vertex 2.02254 1.46946 -1.5
      vertex 1.09217 0.793509 -1.5
      vertex 1.67283 1.85786 -1.5
    endloop
  endfacet
  facet normal 0 0 -1
    outer loop
      vertex 0.903326 1.00325 -1.5
      vertex 1.67283 1.85786 -1.5
      vertex 1.09217 0.793509 -1.5
    endloop
  endfacet
  facet normal -0 0 -1
    outer loop
      vertex 1.67283 1.85786 -1.5
      vertex 0.903326 1.00325 -1.5
      vertex 1.25 2.16506 -1.5
    endloop
  endfacet
  facet normal 0 0 -1
    outer loop
      vertex 0.674999 1.16913 -1.5
      vertex 1.25 2.16506 -1.5
      vertex 0.903326 1.00325 -1.5
    endloop
  endfacet
  facet normal -0 0 -1
    outer loop
      vertex 1.25 2.16506 -1.5
      vertex 0.674999 1.16913 -1.5
      vertex 0.772542 2.37764 -1.5
    endloop
  endfacet
  facet normal 0 0 -1
    outer loop
      vertex 0.417172 1.28393 -1.5
      vertex 0.772542 2.37764 -1.5
      vertex 0.674999 1.16913 -1.5
    endloop
  endfacet
  facet normal 0 0 -1
    outer loop
      vertex 0.417172 1.28393 -1.5
      vertex 0.261321 2.4863 -1.5
      vertex 0.772542 2.37764 -1.5
    endloop
  endfacet
  facet normal 0 0 -1
    outer loop
      vertex 0.141113 1.3426 -1.5
      vertex 0.261321 2.4863 -1.5
      vertex 0.417172 1.28393 -1.5
    endloop
  endfacet
  facet normal 0 0 -1
    outer loop
      vertex -0.141113 1.3426 -1.5
      vertex 0.261321 2.4863 -1.5
      vertex 0.141113 1.3426 -1.5
    endloop
  endfacet
  facet normal 0 0 -1
    outer loop
      vertex -0.141113 1.3426 -1.5
      vertex -0.261321 2.4863 -1.5
      vertex 0.261321 2.4863 -1.5
    endloop
  endfacet
  facet normal 0 0 -1
    outer loop
      vertex -0.417172 1.28393 -1.5
      vertex -0.261321 2.4863 -1.5
      vertex -0.141113 1.3426 -1.5
    endloop
  endfacet
  facet normal 0 0 -1
    outer loop
      vertex -0.772542 2.37764 -1.5
      vertex -0.417172 1.28393 -1.5
      vertex -0.674999 1.16913 -1.5
    endloop
  endfacet
  facet normal 0 0 -1
    outer loop
      vertex -0.417172 1.28393 -1.5
      vertex -0.772542 2.37764 -1.5
      vertex -0.261321 2.4863 -1.5
    endloop
  endfacet
  facet normal 0 0 -1
    outer loop
      vertex -1.25 2.16506 -1.5
      vertex -0.674999 1.16913 -1.5
      vertex -0.903326 1.00325 -1.5
    endloop
  endfacet
  facet normal 0 0 -1
    outer loop
      vertex -1.67283 1.85786 -1.5
      vertex -0.903326 1.00325 -1.5
      vertex -1.09217 0.793509 -1.5
    endloop
  endfacet
  facet normal 0 0 -1
    outer loop
      vertex -2.02254 1.46946 -1.5
      vertex -1.09217 0.793509 -1.5
      vertex -1.23329 0.549094 -1.5
    endloop
  endfacet
  facet normal 0 0 -1
    outer loop
      vertex -0.674999 1.16913 -1.5
      vertex -1.25 2.16506 -1.5
      vertex -0.772542 2.37764 -1.5
    endloop
  endfacet
  facet normal 0 0 -1
    outer loop
      vertex -2.28386 1.01684 -1.5
      vertex -1.23329 0.549094 -1.5
      vertex -1.3205 0.280681 -1.5
    endloop
  endfacet
  facet normal 0 0 -1
    outer loop
      vertex -2.44537 0.519779 -1.5
      vertex -1.3205 0.280681 -1.5
      vertex -1.35 0 -1.5
    endloop
  endfacet
  facet normal -0 0 -1
    outer loop
      vertex -1.23329 -0.549094 -1.5
      vertex -2.28386 -1.01684 -1.5
      vertex -1.3205 -0.280681 -1.5
    endloop
  endfacet
  facet normal 0 0 -1
    outer loop
      vertex -0.903326 1.00325 -1.5
      vertex -1.67283 1.85786 -1.5
      vertex -1.25 2.16506 -1.5
    endloop
  endfacet
  facet normal 0 0 -1
    outer loop
      vertex -2.44537 -0.519779 -1.5
      vertex -1.3205 -0.280681 -1.5
      vertex -2.28386 -1.01684 -1.5
    endloop
  endfacet
  facet normal 0 0 -1
    outer loop
      vertex -1.09217 0.793509 -1.5
      vertex -2.02254 1.46946 -1.5
      vertex -1.67283 1.85786 -1.5
    endloop
  endfacet
  facet normal -0 0 -1
    outer loop
      vertex -1.3205 -0.280681 -1.5
      vertex -2.44537 -0.519779 -1.5
      vertex -1.35 0 -1.5
    endloop
  endfacet
  facet normal 0 0 -1
    outer loop
      vertex -1.23329 0.549094 -1.5
      vertex -2.28386 1.01684 -1.5
      vertex -2.02254 1.46946 -1.5
    endloop
  endfacet
  facet normal 0 0 -1
    outer loop
      vertex -2.5 0 -1.5
      vertex -1.35 0 -1.5
      vertex -2.44537 -0.519779 -1.5
    endloop
  endfacet
  facet normal 0 0 -1
    outer loop
      vertex -1.3205 0.280681 -1.5
      vertex -2.44537 0.519779 -1.5
      vertex -2.28386 1.01684 -1.5
    endloop
  endfacet
  facet normal 0 0 -1
    outer loop
      vertex -1.35 0 -1.5
      vertex -2.5 0 -1.5
      vertex -2.44537 0.519779 -1.5
    endloop
  endfacet
  facet normal 0.40674 -0.913544 0
    outer loop
      vertex 0.772542 -2.37764 -1.5
      vertex 1.25 -2.16506 1.5
      vertex 0.772542 -2.37764 1.5
    endloop
  endfacet
  facet normal 0.40674 -0.913544 0
    outer loop
      vertex 1.25 -2.16506 1.5
      vertex 0.772542 -2.37764 -1.5
      vertex 1.25 -2.16506 -1.5
    endloop
  endfacet
  facet normal -0.743151 -0.669123 0
    outer loop
      vertex -1.67283 -1.85786 -1.5
      vertex -2.02254 -1.46946 1.5
      vertex -2.02254 -1.46946 -1.5
    endloop
  endfacet
  facet normal -0.743151 -0.669123 0
    outer loop
      vertex -2.02254 -1.46946 1.5
      vertex -1.67283 -1.85786 -1.5
      vertex -1.67283 -1.85786 1.5
    endloop
  endfacet
  facet normal -0 0 1
    outer loop
      vertex 2.24489 0.405428 1.5
      vertex 2.5 0 1.5
      vertex 2.44537 0.519779 1.5
    endloop
  endfacet
  facet normal 0 0 1
    outer loop
      vertex 2.24489 -0.405428 1.5
      vertex 2.5 0 1.5
      vertex 2.2875 0 1.5
    endloop
  endfacet
  facet normal -0 0 1
    outer loop
      vertex 2.21571 0.542701 1.5
      vertex 2.44537 0.519779 1.5
      vertex 2.28386 1.01684 1.5
    endloop
  endfacet
  facet normal 0 0 1
    outer loop
      vertex 2.5 0 1.5
      vertex 2.24489 0.405428 1.5
      vertex 2.2875 0 1.5
    endloop
  endfacet
  facet normal 0 0 1
    outer loop
      vertex 2.44537 0.519779 1.5
      vertex 2.23751 0.475598 1.5
      vertex 2.24489 0.405428 1.5
    endloop
  endfacet
  facet normal 0 0 1
    outer loop
      vertex 2.44537 0.519779 1.5
      vertex 2.21571 0.542701 1.5
      vertex 2.23751 0.475598 1.5
    endloop
  endfacet
  facet normal 0 0 1
    outer loop
      vertex 2.28386 1.01684 1.5
      vertex 2.08973 0.93041 1.5
      vertex 2.21571 0.542701 1.5
    endloop
  endfacet
  facet normal -0 0 1
    outer loop
      vertex 1.8859 1.28345 1.5
      vertex 2.28386 1.01684 1.5
      vertex 2.02254 1.46946 1.5
    endloop
  endfacet
  facet normal 0 0 1
    outer loop
      vertex 2.28386 1.01684 1.5
      vertex 1.8859 1.28345 1.5
      vertex 2.08973 0.93041 1.5
    endloop
  endfacet
  facet normal 0 0 1
    outer loop
      vertex 2.02254 1.46946 1.5
      vertex 1.85063 1.34456 1.5
      vertex 1.8859 1.28345 1.5
    endloop
  endfacet
  facet normal 0 0 1
    outer loop
      vertex 2.02254 1.46946 1.5
      vertex 1.80341 1.39699 1.5
      vertex 1.85063 1.34456 1.5
    endloop
  endfacet
  facet normal 0 0 1
    outer loop
      vertex 1.67283 1.85786 1.5
      vertex 1.80341 1.39699 1.5
      vertex 2.02254 1.46946 1.5
    endloop
  endfacet
  facet normal 0 0 1
    outer loop
      vertex 1.67283 1.85786 1.5
      vertex 1.53064 1.69994 1.5
      vertex 1.80341 1.39699 1.5
    endloop
  endfacet
  facet normal -0 0 1
    outer loop
      vertex 1.20083 1.93956 1.5
      vertex 1.67283 1.85786 1.5
      vertex 1.25 2.16506 1.5
    endloop
  endfacet
  facet normal 0 0 1
    outer loop
      vertex 1.67283 1.85786 1.5
      vertex 1.20083 1.93956 1.5
      vertex 1.53064 1.69994 1.5
    endloop
  endfacet
  facet normal 0 0 1
    outer loop
      vertex 1.25 2.16506 1.5
      vertex 1.14375 1.98103 1.5
      vertex 1.20083 1.93956 1.5
    endloop
  endfacet
  facet normal 0 0 1
    outer loop
      vertex 0.771333 2.14684 1.5
      vertex 1.25 2.16506 1.5
      vertex 0.772542 2.37764 1.5
    endloop
  endfacet
  facet normal 0 0 1
    outer loop
      vertex 1.25 2.16506 1.5
      vertex 0.771333 2.14684 1.5
      vertex 1.14375 1.98103 1.5
    endloop
  endfacet
  facet normal 0 0 1
    outer loop
      vertex 0.772542 2.37764 1.5
      vertex 0.706876 2.17554 1.5
      vertex 0.771333 2.14684 1.5
    endloop
  endfacet
  facet normal 0 0 1
    outer loop
      vertex 0.772542 2.37764 1.5
      vertex 0.308123 2.2603 1.5
      vertex 0.706876 2.17554 1.5
    endloop
  endfacet
  facet normal 0 0 1
    outer loop
      vertex 0.261321 2.4863 1.5
      vertex 0.308123 2.2603 1.5
      vertex 0.772542 2.37764 1.5
    endloop
  endfacet
  facet normal 0 0 1
    outer loop
      vertex 0.261321 2.4863 1.5
      vertex 0.239108 2.27497 1.5
      vertex 0.308123 2.2603 1.5
    endloop
  endfacet
  facet normal 0 0 1
    outer loop
      vertex 0.261321 2.4863 1.5
      vertex -0.239108 2.27497 1.5
      vertex 0.239108 2.27497 1.5
    endloop
  endfacet
  facet normal -0 0 1
    outer loop
      vertex -0.261321 2.4863 1.5
      vertex -0.239108 2.27497 1.5
      vertex 0.261321 2.4863 1.5
    endloop
  endfacet
  facet normal 0 0 1
    outer loop
      vertex -0.261321 2.4863 1.5
      vertex -0.308123 2.2603 1.5
      vertex -0.239108 2.27497 1.5
    endloop
  endfacet
  facet normal -0 0 1
    outer loop
      vertex -0.772542 2.37764 1.5
      vertex -0.308123 2.2603 1.5
      vertex -0.261321 2.4863 1.5
    endloop
  endfacet
  facet normal 0 0 1
    outer loop
      vertex -0.308123 2.2603 1.5
      vertex -0.772542 2.37764 1.5
      vertex -0.706876 2.17554 1.5
    endloop
  endfacet
  facet normal 0 0 1
    outer loop
      vertex -0.706876 2.17554 1.5
      vertex -0.772542 2.37764 1.5
      vertex -0.771333 2.14684 1.5
    endloop
  endfacet
  facet normal -0 0 1
    outer loop
      vertex -1.25 2.16506 1.5
      vertex -0.771333 2.14684 1.5
      vertex -0.772542 2.37764 1.5
    endloop
  endfacet
  facet normal 0 0 1
    outer loop
      vertex -0.771333 2.14684 1.5
      vertex -1.25 2.16506 1.5
      vertex -1.14375 1.98103 1.5
    endloop
  endfacet
  facet normal 0 0 1
    outer loop
      vertex -1.14375 1.98103 1.5
      vertex -1.25 2.16506 1.5
      vertex -1.20083 1.93956 1.5
    endloop
  endfacet
  facet normal 0 0 1
    outer loop
      vertex -1.67283 1.85786 1.5
      vertex -1.20083 1.93956 1.5
      vertex -1.25 2.16506 1.5
    endloop
  endfacet
  facet normal 0 0 1
    outer loop
      vertex -1.20083 1.93956 1.5
      vertex -1.67283 1.85786 1.5
      vertex -1.53064 1.69994 1.5
    endloop
  endfacet
  facet normal 0 0 1
    outer loop
      vertex -1.67283 1.85786 1.5
      vertex -1.80341 1.39699 1.5
      vertex -1.53064 1.69994 1.5
    endloop
  endfacet
  facet normal -0 0 1
    outer loop
      vertex -2.02254 1.46946 1.5
      vertex -1.80341 1.39699 1.5
      vertex -1.67283 1.85786 1.5
    endloop
  endfacet
  facet normal 0 0 1
    outer loop
      vertex -1.80341 1.39699 1.5
      vertex -2.02254 1.46946 1.5
      vertex -1.85063 1.34456 1.5
    endloop
  endfacet
  facet normal 0 0 1
    outer loop
      vertex -1.85063 1.34456 1.5
      vertex -2.02254 1.46946 1.5
      vertex -1.8859 1.28345 1.5
    endloop
  endfacet
  facet normal 0 0 1
    outer loop
      vertex -2.28386 1.01684 1.5
      vertex -1.8859 1.28345 1.5
      vertex -2.02254 1.46946 1.5
    endloop
  endfacet
  facet normal 0 0 1
    outer loop
      vertex -1.8859 1.28345 1.5
      vertex -2.28386 1.01684 1.5
      vertex -2.08973 0.93041 1.5
    endloop
  endfacet
  facet normal 0 0 1
    outer loop
      vertex -2.08973 0.93041 1.5
      vertex -2.28386 1.01684 1.5
      vertex -2.21571 0.542701 1.5
    endloop
  endfacet
  facet normal 0 0 1
    outer loop
      vertex -2.44537 0.519779 1.5
      vertex -2.21571 0.542701 1.5
      vertex -2.28386 1.01684 1.5
    endloop
  endfacet
  facet normal 0 0 1
    outer loop
      vertex -2.21571 0.542701 1.5
      vertex -2.44537 0.519779 1.5
      vertex -2.23751 0.475598 1.5
    endloop
  endfacet
  facet normal 0 0 1
    outer loop
      vertex -2.23751 0.475598 1.5
      vertex -2.44537 0.519779 1.5
      vertex -2.24489 0.405428 1.5
    endloop
  endfacet
  facet normal 0 0 1
    outer loop
      vertex -2.5 0 1.5
      vertex -2.24489 0.405428 1.5
      vertex -2.44537 0.519779 1.5
    endloop
  endfacet
  facet normal 0 0 1
    outer loop
      vertex 2.5 0 1.5
      vertex 2.24489 -0.405428 1.5
      vertex 2.44537 -0.519779 1.5
    endloop
  endfacet
  facet normal -0 0 1
    outer loop
      vertex 2.23751 -0.475598 1.5
      vertex 2.44537 -0.519779 1.5
      vertex 2.24489 -0.405428 1.5
    endloop
  endfacet
  facet normal 0 0 1
    outer loop
      vertex 2.21571 -0.542701 1.5
      vertex 2.44537 -0.519779 1.5
      vertex 2.23751 -0.475598 1.5
    endloop
  endfacet
  facet normal 0 0 1
    outer loop
      vertex 2.44537 -0.519779 1.5
      vertex 2.21571 -0.542701 1.5
      vertex 2.28386 -1.01684 1.5
    endloop
  endfacet
  facet normal -0 0 1
    outer loop
      vertex 2.08973 -0.93041 1.5
      vertex 2.28386 -1.01684 1.5
      vertex 2.21571 -0.542701 1.5
    endloop
  endfacet
  facet normal 0 0 1
    outer loop
      vertex 1.8859 -1.28345 1.5
      vertex 2.28386 -1.01684 1.5
      vertex 2.08973 -0.93041 1.5
    endloop
  endfacet
  facet normal 0 0 1
    outer loop
      vertex 2.28386 -1.01684 1.5
      vertex 1.8859 -1.28345 1.5
      vertex 2.02254 -1.46946 1.5
    endloop
  endfacet
  facet normal -0 0 1
    outer loop
      vertex 1.85063 -1.34456 1.5
      vertex 2.02254 -1.46946 1.5
      vertex 1.8859 -1.28345 1.5
    endloop
  endfacet
  facet normal -0 0 1
    outer loop
      vertex 1.80341 -1.39699 1.5
      vertex 2.02254 -1.46946 1.5
      vertex 1.85063 -1.34456 1.5
    endloop
  endfacet
  facet normal 0 0 1
    outer loop
      vertex 1.80341 -1.39699 1.5
      vertex 1.67283 -1.85786 1.5
      vertex 2.02254 -1.46946 1.5
    endloop
  endfacet
  facet normal -0 0 1
    outer loop
      vertex 1.53064 -1.69994 1.5
      vertex 1.67283 -1.85786 1.5
      vertex 1.80341 -1.39699 1.5
    endloop
  endfacet
  facet normal 0 0 1
    outer loop
      vertex 1.20083 -1.93956 1.5
      vertex 1.67283 -1.85786 1.5
      vertex 1.53064 -1.69994 1.5
    endloop
  endfacet
  facet normal 0 0 1
    outer loop
      vertex 1.67283 -1.85786 1.5
      vertex 1.20083 -1.93956 1.5
      vertex 1.25 -2.16506 1.5
    endloop
  endfacet
  facet normal -0 0 1
    outer loop
      vertex 1.14375 -1.98103 1.5
      vertex 1.25 -2.16506 1.5
      vertex 1.20083 -1.93956 1.5
    endloop
  endfacet
  facet normal -0 0 1
    outer loop
      vertex 0.771333 -2.14684 1.5
      vertex 1.25 -2.16506 1.5
      vertex 1.14375 -1.98103 1.5
    endloop
  endfacet
  facet normal 0 0 1
    outer loop
      vertex 1.25 -2.16506 1.5
      vertex 0.771333 -2.14684 1.5
      vertex 0.772542 -2.37764 1.5
    endloop
  endfacet
  facet normal -0 0 1
    outer loop
      vertex 0.706876 -2.17554 1.5
      vertex 0.772542 -2.37764 1.5
      vertex 0.771333 -2.14684 1.5
    endloop
  endfacet
  facet normal -0 0 1
    outer loop
      vertex 0.308123 -2.2603 1.5
      vertex 0.772542 -2.37764 1.5
      vertex 0.706876 -2.17554 1.5
    endloop
  endfacet
  facet normal 0 0 1
    outer loop
      vertex 0.308123 -2.2603 1.5
      vertex 0.261321 -2.4863 1.5
      vertex 0.772542 -2.37764 1.5
    endloop
  endfacet
  facet normal -0 0 1
    outer loop
      vertex 0.239108 -2.27497 1.5
      vertex 0.261321 -2.4863 1.5
      vertex 0.308123 -2.2603 1.5
    endloop
  endfacet
  facet normal -0 0 1
    outer loop
      vertex -0.239108 -2.27497 1.5
      vertex 0.261321 -2.4863 1.5
      vertex 0.239108 -2.27497 1.5
    endloop
  endfacet
  facet normal 0 0 1
    outer loop
      vertex -0.239108 -2.27497 1.5
      vertex -0.261321 -2.4863 1.5
      vertex 0.261321 -2.4863 1.5
    endloop
  endfacet
  facet normal 0 0 1
    outer loop
      vertex -0.308123 -2.2603 1.5
      vertex -0.261321 -2.4863 1.5
      vertex -0.239108 -2.27497 1.5
    endloop
  endfacet
  facet normal 0 0 1
    outer loop
      vertex -0.772542 -2.37764 1.5
      vertex -0.308123 -2.2603 1.5
      vertex -0.706876 -2.17554 1.5
    endloop
  endfacet
  facet normal 0 0 1
    outer loop
      vertex -0.772542 -2.37764 1.5
      vertex -0.706876 -2.17554 1.5
      vertex -0.771333 -2.14684 1.5
    endloop
  endfacet
  facet normal 0 0 1
    outer loop
      vertex -0.308123 -2.2603 1.5
      vertex -0.772542 -2.37764 1.5
      vertex -0.261321 -2.4863 1.5
    endloop
  endfacet
  facet normal 0 0 1
    outer loop
      vertex -1.25 -2.16506 1.5
      vertex -0.771333 -2.14684 1.5
      vertex -1.14375 -1.98103 1.5
    endloop
  endfacet
  facet normal 0 0 1
    outer loop
      vertex -1.25 -2.16506 1.5
      vertex -1.14375 -1.98103 1.5
      vertex -1.20083 -1.93956 1.5
    endloop
  endfacet
  facet normal 0 0 1
    outer loop
      vertex -0.771333 -2.14684 1.5
      vertex -1.25 -2.16506 1.5
      vertex -0.772542 -2.37764 1.5
    endloop
  endfacet
  facet normal -0 0 1
    outer loop
      vertex -1.67283 -1.85786 1.5
      vertex -1.20083 -1.93956 1.5
      vertex -1.53064 -1.69994 1.5
    endloop
  endfacet
  facet normal 0 0 1
    outer loop
      vertex -1.20083 -1.93956 1.5
      vertex -1.67283 -1.85786 1.5
      vertex -1.25 -2.16506 1.5
    endloop
  endfacet
  facet normal 0 0 1
    outer loop
      vertex -1.80341 -1.39699 1.5
      vertex -1.67283 -1.85786 1.5
      vertex -1.53064 -1.69994 1.5
    endloop
  endfacet
  facet normal 0 0 1
    outer loop
      vertex -2.02254 -1.46946 1.5
      vertex -1.80341 -1.39699 1.5
      vertex -1.85063 -1.34456 1.5
    endloop
  endfacet
  facet normal 0 0 1
    outer loop
      vertex -2.02254 -1.46946 1.5
      vertex -1.85063 -1.34456 1.5
      vertex -1.8859 -1.28345 1.5
    endloop
  endfacet
  facet normal 0 0 1
    outer loop
      vertex -1.80341 -1.39699 1.5
      vertex -2.02254 -1.46946 1.5
      vertex -1.67283 -1.85786 1.5
    endloop
  endfacet
  facet normal -0 0 1
    outer loop
      vertex -2.28386 -1.01684 1.5
      vertex -1.8859 -1.28345 1.5
      vertex -2.08973 -0.93041 1.5
    endloop
  endfacet
  facet normal 0 0 1
    outer loop
      vertex -2.28386 -1.01684 1.5
      vertex -2.08973 -0.93041 1.5
      vertex -2.21571 -0.542701 1.5
    endloop
  endfacet
  facet normal -0 0 1
    outer loop
      vertex -2.44537 -0.519779 1.5
      vertex -2.21571 -0.542701 1.5
      vertex -2.23751 -0.475598 1.5
    endloop
  endfacet
  facet normal 0 0 1
    outer loop
      vertex -1.8859 -1.28345 1.5
      vertex -2.28386 -1.01684 1.5
      vertex -2.02254 -1.46946 1.5
    endloop
  endfacet
  facet normal 0 0 1
    outer loop
      vertex -2.44537 -0.519779 1.5
      vertex -2.23751 -0.475598 1.5
      vertex -2.24489 -0.405428 1.5
    endloop
  endfacet
  facet normal -0 0 1
    outer loop
      vertex -2.5 0 1.5
      vertex -2.24489 -0.405428 1.5
      vertex -2.2875 0 1.5
    endloop
  endfacet
  facet normal 0 0 1
    outer loop
      vertex -2.24489 0.405428 1.5
      vertex -2.5 0 1.5
      vertex -2.2875 0 1.5
    endloop
  endfacet
  facet normal 0 0 1
    outer loop
      vertex -2.21571 -0.542701 1.5
      vertex -2.44537 -0.519779 1.5
      vertex -2.28386 -1.01684 1.5
    endloop
  endfacet
  facet normal 0 0 1
    outer loop
      vertex -2.24489 -0.405428 1.5
      vertex -2.5 0 1.5
      vertex -2.44537 -0.519779 1.5
    endloop
  endfacet
  facet normal -0.58778 -0.809021 0
    outer loop
      vertex -1.67283 -1.85786 -1.5
      vertex -1.25 -2.16506 1.5
      vertex -1.67283 -1.85786 1.5
    endloop
  endfacet
  facet normal -0.58778 -0.809021 -0
    outer loop
      vertex -1.25 -2.16506 1.5
      vertex -1.67283 -1.85786 -1.5
      vertex -1.25 -2.16506 -1.5
    endloop
  endfacet
  facet normal -0.866026 0.5 0
    outer loop
      vertex -2.28386 1.01684 -1.5
      vertex -2.02254 1.46946 1.5
      vertex -2.02254 1.46946 -1.5
    endloop
  endfacet
  facet normal -0.866026 0.5 0
    outer loop
      vertex -2.02254 1.46946 1.5
      vertex -2.28386 1.01684 -1.5
      vertex -2.28386 1.01684 1.5
    endloop
  endfacet
endsolid OpenSCAD_Model
